 <svg  version="1.0" xmlns="http://www.w3.org/2000/svg"  width="300.000000pt" height="451.000000pt" viewBox="0 0 300.000000 451.000000"  preserveAspectRatio="xMidYMid meet">  <g transform="translate(0.000000,451.000000) scale(0.050000,-0.050000)" fill="#5072ba" stroke="none"> <path d="M2549 8766 c-33 -31 -94 -112 -136 -181 -61 -100 -86 -125 -126 -125 -117 0 -165 -68 -64 -91 l63 -14 -89 -42 c-144 -70 -289 -233 -207 -233 23 0 16 -25 -30 -106 -40 -72 -53 -113 -39 -127 48 -48 -94 -267 -174 -267 -27 0 -44 -8 -39 -17 6 -10 -30 -53 -80 -95 l-92 -78 9 -140 c7 -110 1 -151 -26 -190 -89 -130 -316 -526 -379 -660 -38 -82 -91 -177 -117 -209 -35 -44 -44 -75 -36 -123 5 -36 -3 -108 -19 -160 -68 -227 -9 -397 151 -438 27 -7 60 -28 73 -46 32 -43 188 -40 252 4 25 18 72 32 105 32 132 1 273 97 341 231 22 44 51 86 65 95 14 9 25 41 25 72 0 49 289 282 350 282 5 0 10 -148 10 -330 l0 -329 -77 -39 c-280 -143 -387 -549 -453 -1722 -22 -388 -43 -586 -89 -830 -189 -1005 -227 -1332 -162 -1383 24 -19 25 -32 5 -76 -30 -66 -31 -210 -2 -285 12 -31 39 -136 59 -234 59 -281 157 -329 161 -78 3 132 3 133 18 46 25 -142 54 -200 100 -200 57 0 69 46 41 148 -14 47 -21 108 -16 134 6 39 11 33 24 -32 9 -44 33 -115 54 -159 32 -67 37 -128 37 -425 l0 -346 70 0 70 0 3 125 c9 439 0 509 -78 587 -29 29 -36 80 -42 307 l-7 273 99 61 c57 35 122 100 156 153 39 62 69 89 89 82 75 -27 253 -68 294 -68 42 0 46 -9 47 -105 0 -58 17 -204 38 -325 41 -237 38 -266 -19 -190 -20 27 -45 42 -54 33 -20 -21 126 -150 188 -166 58 -14 58 -6 -14 -390 -65 -345 -68 -377 -44 -377 8 0 36 124 62 275 72 424 81 431 76 60 -3 -257 2 -335 21 -335 29 0 33 208 12 572 -11 191 -17 222 -45 214 -45 -11 -97 34 -113 99 -10 43 -6 55 19 55 95 0 118 70 103 322 -8 131 -7 238 2 238 9 1 79 14 156 30 76 16 140 27 141 25 2 -3 15 -36 30 -75 49 -126 162 -234 331 -314 79 -38 86 -65 29 -116 -72 -65 -36 -170 47 -138 21 8 31 -30 42 -165 22 -271 81 -372 146 -245 17 34 24 38 25 14 1 -90 96 -111 138 -30 19 38 21 39 13 4 -6 -22 -24 -125 -41 -230 -17 -104 -34 -206 -39 -225 -4 -19 4 -35 17 -35 16 0 34 67 50 185 33 243 42 278 69 268 13 -4 19 -20 15 -35 -83 -289 -98 -418 -46 -418 44 0 48 13 84 300 31 241 30 239 75 227 63 -16 89 36 66 136 -11 48 -20 135 -21 195 l0 107 65 -10 c106 -16 115 -5 115 146 0 128 14 173 209 658 116 287 248 631 295 766 l86 245 -1 570 c-2 692 -82 1155 -270 1572 -35 76 -75 172 -91 214 -47 132 -97 180 -336 323 -128 76 -232 146 -232 156 0 10 -57 43 -127 75 -152 69 -193 154 -155 320 28 120 27 215 -1 224 -15 5 -22 66 -19 184 3 129 -2 172 -19 162 -17 -11 -20 23 -11 133 14 162 -12 325 -38 242 -27 -85 -40 -44 -44 140 -4 251 -49 363 -100 250 -17 -39 -23 -27 -43 86 -47 270 -163 519 -163 351 0 -31 -9 -49 -20 -42 -11 7 -20 38 -20 70 0 121 -105 297 -141 238 -39 -63 -56 13 -28 121 49 187 16 544 -51 556 -18 4 -80 -64 -158 -175 -157 -222 -143 -214 -246 -139 l-86 62 0 173 c0 199 -21 221 -121 130z m50 -234 c17 -21 17 -32 1 -42 -13 -8 -18 -26 -12 -41 10 -28 -32 -25 -167 10 -48 13 -48 13 20 55 82 51 126 56 158 18z m380 -260 c-78 -165 -109 -352 -59 -352 11 0 20 43 20 95 0 69 19 133 72 235 98 193 104 194 100 22 -2 -101 5 -154 21 -160 44 -17 2 -99 -100 -197 -55 -52 -93 -101 -86 -109 8 -7 28 7 45 31 26 36 37 40 61 21 23 -20 24 -28 3 -40 -19 -12 -2 -41 63 -107 82 -83 85 -91 43 -91 -40 0 -24 -22 101 -142 88 -85 137 -146 122 -152 -41 -16 -29 -52 55 -164 85 -113 99 -148 50 -129 -60 23 -56 -54 7 -133 74 -91 76 -100 23 -100 -53 0 -51 -19 16 -112 31 -43 73 -103 93 -134 l37 -56 -53 13 c-71 18 -72 -38 -3 -131 58 -78 62 -100 20 -100 -49 0 -35 -46 59 -191 85 -134 113 -305 62 -387 -5 -9 3 -15 19 -15 16 0 24 7 18 16 -6 10 4 17 22 17 25 0 27 -8 11 -39 -27 -50 -28 -104 -2 -62 23 37 52 -21 34 -68 -6 -15 0 -32 13 -36 48 -16 -18 -113 -70 -103 -30 6 -36 4 -16 -7 45 -22 37 -72 -16 -95 -29 -13 -43 -33 -37 -53 6 -24 -2 -32 -29 -27 -21 4 -38 -1 -38 -11 0 -11 14 -19 31 -19 36 0 -84 -234 -166 -323 -210 -228 -872 -256 -1020 -42 -96 139 -164 625 -88 625 34 0 43 12 43 60 0 33 11 78 25 100 20 32 19 48 -1 81 -29 47 -16 79 32 79 27 1 29 4 6 18 -19 12 -24 38 -15 81 7 36 5 58 -6 52 -10 -6 -28 21 -41 60 -13 40 -37 77 -52 83 -89 34 -28 106 90 106 354 0 541 274 542 795 0 298 -34 252 -45 -60 -7 -208 -18 -289 -52 -376 -140 -361 -599 -445 -703 -128 -22 64 -60 95 -60 48 0 -35 79 -178 123 -222 47 -47 16 -88 -43 -57 -36 19 -91 16 -113 -6 -7 -8 -29 -14 -48 -14 -34 0 -120 -98 -145 -165 -10 -28 -22 -31 -65 -15 -65 25 -89 25 -89 0 0 -10 23 -25 50 -32 58 -14 60 -21 20 -111 -47 -108 -196 -242 -274 -248 -20 -1 -57 -22 -82 -46 -84 -78 -104 -45 -23 39 98 102 226 191 297 209 37 10 48 21 35 34 -33 33 -136 -21 -290 -150 -76 -63 -141 -113 -143 -110 -39 46 -26 158 20 178 28 13 57 47 63 75 7 29 29 68 50 88 58 55 34 174 -35 174 -17 0 -28 11 -23 25 29 86 175 -13 175 -119 0 -36 10 -66 23 -66 36 0 7 186 -33 210 -100 60 -100 60 -54 124 24 33 37 66 30 73 -7 7 -2 13 10 13 13 0 31 29 40 65 11 42 29 64 51 62 18 -1 28 6 22 15 -7 10 3 24 20 30 17 7 31 20 31 30 0 28 -60 21 -61 -7 0 -14 -10 -9 -21 11 -15 25 -15 44 0 62 12 14 16 32 8 39 -7 7 -2 13 12 13 71 0 77 52 12 109 -60 52 -63 61 -44 123 25 80 8 106 -41 64 -55 -47 -85 -60 -85 -37 0 11 13 21 28 21 16 0 50 25 76 56 26 31 63 62 82 70 25 9 34 31 30 68 -5 45 2 56 39 58 31 2 45 -9 45 -35 0 -24 14 -37 41 -37 23 0 36 -9 29 -20 -23 -37 11 -20 62 30 48 48 123 71 98 30 -7 -11 -3 -20 8 -20 11 0 26 10 33 22 8 12 39 17 71 11 71 -15 98 21 29 39 -57 14 -67 43 -20 61 18 7 58 67 91 134 l59 122 -41 55 c-28 38 -40 85 -40 159 l0 105 -65 -62 c-128 -121 -224 -141 -244 -49 -15 66 11 143 61 184 32 26 34 25 20 -11 -53 -132 -58 -210 -14 -210 8 0 50 50 92 111 54 79 81 104 93 85 17 -27 115 70 116 117 1 22 61 82 61 60 0 -7 -22 -79 -50 -161 -81 -240 -44 -366 46 -157 29 68 41 82 42 50 4 -90 56 -44 92 80 26 88 39 112 45 80 10 -57 57 -58 86 -3 24 45 49 33 65 -32 5 -22 10 14 12 81 1 75 14 139 35 170 60 89 134 159 168 159 19 0 49 23 67 50 60 92 50 52 -29 -118z m-413 -72 c9 -8 -7 -34 -36 -56 -57 -45 -150 -27 -150 28 0 58 132 78 186 28z m-325 -511 c-10 -43 -28 -130 -40 -192 -21 -103 -301 -401 -301 -320 0 131 84 310 211 451 155 170 153 169 130 61z m-511 -322 c56 -56 31 -136 -45 -143 -62 -6 -64 -4 -52 55 11 54 7 61 -33 61 -38 0 -41 5 -20 30 33 40 109 38 150 -3z m-128 -602 c-31 -85 -85 -274 -120 -421 -53 -217 -75 -276 -122 -324 -71 -73 -96 -182 -56 -245 15 -25 27 -93 27 -155 l-1 -110 -115 1 c-207 0 -299 209 -189 428 23 46 28 75 14 89 -34 34 -22 88 36 156 31 36 107 143 169 236 99 149 384 500 406 500 4 0 -18 -70 -49 -155z m2507 -1365 c-7 -60 -38 -245 -70 -410 -31 -165 -64 -354 -73 -420 l-16 -119 -195 -53 c-268 -72 -268 -64 -20 -210 153 -90 156 -41 -34 -486 -272 -639 -507 -1402 -449 -1460 18 -19 30 19 58 177 32 183 28 170 168 593 88 267 231 631 360 914 90 197 86 222 -48 276 -11 5 -55 30 -97 56 -90 57 -83 63 117 112 170 42 190 57 190 140 0 36 18 154 39 263 22 108 58 304 80 435 49 285 39 271 123 176 37 -43 79 -74 93 -69 14 5 25 -1 25 -13 0 -12 11 -22 24 -22 14 0 63 -15 109 -32 l85 -33 -84 -43 c-297 -156 -385 -584 -329 -1607 l34 -600 -102 -378 c-56 -207 -123 -453 -149 -547 -26 -93 -66 -251 -89 -350 -24 -99 -51 -201 -61 -226 -23 -60 -23 -139 1 -153 21 -14 -59 -149 -89 -150 -11 0 -83 42 -160 95 -588 399 -499 2637 152 3825 58 104 133 244 168 310 36 67 75 141 87 164 l23 43 71 -44 c69 -44 70 -45 58 -154z m-1845 -99 c-74 -119 -99 -140 -74 -61 12 38 123 180 141 180 4 0 -26 -53 -67 -119z m96 -67 c0 -46 13 -135 27 -196 18 -75 21 -149 11 -220 -8 -60 -30 -220 -48 -358 -42 -327 -77 -537 -137 -830 -100 -481 -119 -695 -131 -1503 -12 -774 -16 -814 -73 -766 -186 154 -257 1333 -113 1849 l17 60 12 -70 c7 -38 19 -158 26 -265 8 -108 23 -201 35 -208 14 -9 16 34 6 135 -7 81 -22 310 -32 508 -10 198 -24 456 -32 573 l-14 212 163 114 c196 137 195 132 33 234 -71 45 -130 83 -130 84 11 140 319 768 363 741 10 -6 17 -48 17 -94z m-233 -96 c-7 -46 -34 -124 -61 -175 -53 -102 -52 -99 14 112 51 164 67 184 47 63z m2494 -122 c7 -73 24 -148 38 -165 14 -17 20 -31 12 -31 -7 0 1 -20 18 -44 17 -25 31 -64 31 -87 0 -23 6 -49 14 -56 8 -8 17 -27 20 -44 10 -46 19 -76 35 -114 9 -20 11 -53 5 -75 -6 -22 -3 -40 7 -40 9 0 16 -16 16 -35 0 -19 5 -57 13 -85 28 -103 46 -210 38 -223 -5 -8 0 -20 10 -26 27 -17 22 -171 -5 -171 -14 0 -12 -8 5 -18 15 -10 21 -28 13 -40 -7 -12 -7 -32 0 -44 19 -31 31 -200 28 -413 -1 -68 3 -133 10 -143 7 -11 -4 -29 -24 -40 -21 -13 -25 -21 -9 -21 35 -1 19 -273 -24 -406 -17 -53 -30 -98 -30 -100 1 -3 -10 -32 -24 -65 -13 -33 -23 -66 -22 -74 2 -7 -10 -44 -26 -82 -15 -38 -23 -75 -16 -81 7 -7 2 -13 -11 -13 -12 0 -23 -13 -23 -30 0 -44 -122 -310 -143 -310 -9 0 -16 -7 -15 -15 8 -49 -5 -86 -25 -73 -14 8 -18 5 -10 -7 7 -12 3 -47 -10 -78 -13 -31 -22 -65 -19 -74 2 -10 -12 -41 -32 -70 -23 -36 -35 -93 -35 -180 l-1 -127 -99 13 c-208 28 -471 142 -471 206 0 27 80 341 150 585 14 50 41 149 60 220 20 72 56 202 82 290 86 295 90 336 69 637 -83 1198 -18 1663 258 1848 106 72 129 56 142 -99z m-2121 -283 c-27 -28 -60 5 -60 60 l0 51 39 -47 c21 -26 31 -55 21 -64z m1000 29 c0 -55 -52 -93 -68 -50 -13 34 18 88 50 88 10 0 18 -17 18 -38z m-853 -112 c-10 -25 -18 -25 -69 1 -57 30 -70 50 -45 75 23 23 126 -45 114 -76z m753 51 c0 -34 -52 -81 -89 -81 -27 0 -8 80 24 98 51 30 65 27 65 -17z m-710 -130 c212 -62 515 -38 734 58 30 13 29 0 -10 -122 -53 -169 -46 -161 -93 -118 -36 32 -37 40 -10 78 33 47 37 73 12 73 -9 0 -27 -23 -40 -51 -22 -48 -24 -49 -73 -17 -59 38 -69 4 -11 -37 36 -25 37 -32 10 -84 -33 -64 -37 -91 -11 -91 10 0 28 27 39 61 19 54 27 58 62 39 48 -25 54 -104 11 -147 -18 -18 -22 -35 -11 -42 37 -23 -2 -73 -46 -59 -41 13 -42 12 -8 -26 44 -49 -11 -346 -64 -346 -23 0 -24 -5 -5 -24 34 -34 30 -99 -9 -154 -24 -34 -26 -50 -9 -61 82 -51 -6 -73 -114 -29 -63 26 -125 47 -139 48 -38 0 -30 28 21 76 l46 43 35 -59 c19 -33 44 -60 54 -60 28 0 24 16 -24 80 -41 56 -42 61 -10 96 53 59 41 98 -14 47 l-47 -44 -31 45 c-17 25 -37 40 -45 32 -8 -7 0 -33 17 -57 28 -40 27 -49 -13 -111 -58 -89 -95 -85 -160 14 l-54 82 41 58 c49 68 31 76 -33 16 l-45 -42 -22 42 c-20 38 -17 42 28 42 28 0 51 9 51 20 0 31 -114 24 -126 -8 -6 -15 3 -47 20 -72 28 -40 27 -48 -12 -101 -59 -81 -52 -96 15 -32 l57 55 33 -50 c47 -72 47 -72 -104 -72 -121 0 -139 5 -160 45 -12 25 -34 60 -47 79 -21 28 -17 43 23 85 58 61 32 69 -31 9 l-45 -42 -21 41 c-15 28 -16 45 -1 53 11 8 15 30 9 51 -11 34 98 179 118 157 4 -4 22 -38 40 -74 19 -36 43 -60 54 -53 11 7 2 40 -24 82 l-43 70 63 65 c67 69 64 92 -11 92 -50 0 -64 -30 -22 -46 18 -7 15 -19 -11 -47 -35 -36 -37 -36 -75 13 -46 60 -49 83 -9 67 17 -6 30 -1 30 11 0 12 -13 22 -30 22 -35 0 -39 54 -10 130 26 68 63 56 85 -27 9 -35 24 -60 34 -54 9 6 7 44 -5 85 -16 52 -17 75 -1 80 12 4 38 20 59 35 55 40 21 60 -37 23 -52 -35 -75 -26 -75 30 0 19 -10 38 -23 42 -14 5 -17 30 -8 71 l14 63 80 -58 c44 -32 128 -72 187 -89z m130 58 c0 -38 -22 -47 -85 -35 -88 17 -74 80 15 70 41 -5 70 -19 70 -35z m440 11 c0 -22 -8 -40 -18 -40 -10 0 -33 -5 -50 -12 -33 -13 -47 50 -19 79 30 30 87 12 87 -27z m-284 -25 c-5 -37 -16 -44 -66 -38 -73 8 -78 13 -63 52 20 54 137 41 129 -14z m144 5 c0 -22 -13 -40 -28 -40 -16 0 -43 -5 -60 -12 -33 -13 -47 50 -19 79 32 31 107 13 107 -27z m-1097 -111 c40 -21 56 -42 49 -62 -7 -17 -12 -56 -12 -87 0 -43 -16 -66 -72 -99 l-73 -42 17 55 c10 31 17 103 16 161 -1 58 2 105 6 105 5 0 35 -14 69 -31z m152 -95 c20 -15 18 -25 -10 -46 -53 -40 -65 -34 -65 33 0 61 11 63 75 13z m225 -323 c0 -14 -20 -42 -43 -63 -41 -36 -43 -36 -30 -1 7 20 13 59 13 87 0 43 5 47 30 26 17 -14 30 -36 30 -49z m-502 -708 c-30 -150 -33 -127 -21 157 l11 250 15 -150 c10 -91 7 -192 -5 -257z m471 245 c19 -28 31 -53 28 -56 -41 -27 -177 -64 -177 -48 0 30 80 156 99 156 9 0 32 -23 50 -52z m610 -170 c185 -69 207 -154 61 -238 -16 -9 -23 -23 -15 -31 7 -8 37 1 64 19 l51 33 0 -81 c0 -72 -5 -80 -50 -80 -27 0 -50 -9 -50 -20 0 -11 17 -20 39 -20 42 0 72 -31 45 -48 -10 -6 -13 -39 -8 -74 7 -50 -1 -71 -38 -100 -26 -19 -41 -42 -33 -49 8 -8 28 -3 45 11 26 22 30 9 30 -103 0 -70 6 -149 14 -177 12 -45 10 -47 -21 -23 -39 33 -41 23 -10 -46 20 -45 17 -58 -23 -101 -26 -27 -40 -57 -32 -65 9 -8 32 5 52 29 l36 45 12 -45 c27 -104 16 -134 -53 -136 l-65 -2 65 -21 c75 -24 79 -45 26 -114 -37 -49 -39 -49 -79 -12 -23 20 -42 28 -42 17 0 -11 18 -36 39 -55 36 -33 37 -41 10 -92 -34 -67 -36 -79 -9 -79 11 0 31 26 45 59 32 76 111 24 128 -86 l12 -69 -104 -22 c-424 -91 -1135 162 -980 349 36 43 48 36 88 -46 21 -44 40 -64 46 -48 5 14 -7 57 -27 93 -35 67 -35 68 13 107 27 22 42 46 34 54 -8 9 -33 -2 -56 -22 -41 -37 -43 -37 -79 11 -34 45 -34 50 -3 73 31 24 30 26 -2 26 -51 1 -46 108 9 182 l43 59 55 -65 c30 -36 61 -58 70 -50 8 9 -10 42 -41 74 -53 55 -54 60 -23 104 47 67 39 91 -14 40 l-47 -43 -43 46 c-56 60 -55 74 5 74 27 0 54 9 61 20 7 12 -14 20 -51 20 -79 0 -71 74 17 151 70 61 77 61 114 -11 17 -33 40 -60 51 -60 30 0 22 30 -24 89 -41 53 -42 58 -10 111 47 80 41 94 -16 41 l-50 -47 -40 48 c-45 55 -56 28 -12 -34 25 -37 23 -47 -22 -99 l-50 -59 13 110 c7 67 25 120 45 135 18 14 22 25 9 25 -30 0 -31 109 -2 163 21 40 24 39 78 -26 31 -37 63 -60 72 -52 8 9 -13 45 -47 80 l-62 65 39 48 c21 26 34 53 27 60 -6 6 -29 -11 -49 -38 -38 -51 -74 -45 -53 8 33 87 548 93 772 10z m-819 -878 c17 -31 15 -51 -9 -85 -30 -43 -31 -41 -31 41 0 94 8 103 40 44z m-340 -684 c22 -172 40 -323 40 -335 0 -21 -191 42 -223 74 -8 8 -2 55 15 103 16 49 34 166 40 260 5 95 18 255 29 356 10 102 20 201 22 220 1 20 11 -54 20 -164 10 -110 36 -341 57 -514z m1370 7 c-28 -27 -67 43 -44 79 22 36 25 35 38 -16 8 -30 11 -58 6 -63z m-961 -106 c56 -25 59 -33 33 -74 -23 -37 -125 27 -109 69 14 34 12 34 76 5z m11 -152 c0 -13 -27 -54 -59 -90 l-60 -65 0 124 -1 124 60 -34 c33 -19 60 -45 60 -59z m148 83 c61 -23 40 -94 -23 -79 -68 17 -94 41 -76 69 15 25 52 28 99 10z m165 -48 c19 0 28 -16 23 -45 -6 -46 -82 -57 -121 -18 -26 26 7 87 39 74 16 -6 43 -11 59 -11z m162 -50 c19 -15 -25 -70 -56 -70 -45 0 -67 31 -51 72 10 26 76 25 107 -2z m-380 -24 c9 -28 -195 -246 -231 -246 -36 0 -5 62 79 155 42 46 77 94 77 106 0 29 64 16 75 -15z m513 22 c18 -7 32 -30 32 -51 0 -61 -128 -44 -136 18 -7 47 35 60 104 33z m162 -40 c0 -27 -14 -38 -50 -38 -59 0 -81 62 -26 76 56 14 76 4 76 -38z m170 24 c0 -28 -41 -52 -92 -52 -15 0 -28 18 -28 40 0 31 13 40 60 40 38 0 60 -10 60 -28z m-1484 -49 c35 -22 7 -87 -34 -79 -39 8 -57 96 -18 96 14 0 38 -8 52 -17z m149 -71 c10 -15 14 -14 15 4 0 15 9 21 20 14 74 -46 11 -72 -125 -52 -8 1 -15 21 -15 43 0 45 74 38 105 -9z m1085 -159 c18 -216 8 -314 -34 -340 -61 -38 -87 44 -108 338 l-13 182 71 -9 71 -8 13 -163z m-1178 87 c42 0 34 -28 -25 -88 -51 -51 -53 -57 -31 -152 22 -96 16 -160 -16 -160 -8 0 -21 47 -29 103 -7 57 -22 119 -32 138 -13 24 -9 42 11 59 17 14 30 47 30 75 0 37 8 46 32 37 17 -7 44 -12 60 -12z m2176 -83 c-28 -54 -35 -58 -61 -33 -45 45 3 143 56 114 35 -18 35 -23 5 -81z m-1951 16 c41 -44 44 -63 39 -285 l-6 -238 -37 140 c-55 207 -62 213 -69 61 -10 -238 -70 -248 -95 -17 -12 110 -44 173 -52 101 -1 -14 -9 15 -16 65 -28 170 130 286 236 173z m2063 2 c-1 -59 -27 -115 -53 -115 -40 0 -54 49 -28 98 24 46 81 57 81 17z m112 -63 c-6 -23 -12 -53 -12 -67 0 -14 -22 -25 -50 -25 -54 0 -62 26 -31 107 25 66 111 52 93 -15z m88 3 c-1 -58 -27 -115 -52 -115 -33 0 -36 47 -7 101 23 44 59 52 59 14z m90 -30 c-8 -19 -19 -51 -25 -70 -17 -61 -68 -43 -53 20 18 75 25 85 61 85 22 0 27 -11 17 -35z m-419 -32 c64 -44 230 -93 315 -93 89 0 94 -41 22 -192 -26 -54 -30 -101 -20 -214 9 -105 7 -135 -8 -110 -12 19 -27 94 -34 165 -6 72 -21 131 -32 131 -12 0 -14 -53 -5 -145 22 -232 22 -261 -1 -269 -36 -12 -73 97 -83 249 -6 80 -19 145 -31 145 -13 0 -16 -59 -8 -167 13 -183 3 -253 -36 -253 -35 0 -70 153 -70 309 0 74 -9 131 -20 131 -12 0 -20 -69 -20 -165 -1 -174 -14 -255 -41 -255 -30 0 -48 145 -47 385 0 130 -7 224 -15 210 -9 -14 -17 -38 -17 -53 0 -32 -57 -102 -83 -102 -33 0 -16 55 38 125 30 39 70 99 89 133 38 70 50 73 107 35z m498 -80 c-7 -39 -29 -85 -50 -104 -45 -40 -37 18 17 125 40 79 51 72 33 -21z m-2665 -203 c-10 -81 -15 -85 -45 -28 -21 38 -11 57 52 97 1 1 -3 -30 -7 -69z"/> <path d="M2797 7802 c45 -40 48 -120 4 -93 -29 18 -65 -65 -71 -164 -3 -48 -11 -92 -16 -98 -6 -5 -3 -36 6 -69 10 -32 12 -58 6 -58 -6 0 0 -13 13 -29 13 -16 38 -23 54 -17 23 9 25 15 5 27 -45 28 -26 179 22 179 8 0 30 36 50 80 20 44 44 80 53 80 39 0 16 102 -28 120 -25 11 -67 34 -95 52 l-50 33 47 -43z"/> <path d="M2365 7379 c-46 -18 -62 -59 -24 -59 12 0 40 10 61 21 57 30 156 4 211 -56 58 -63 83 -47 37 23 -49 75 -189 110 -285 71z"/> <path d="M2947 7347 c7 -8 -9 -29 -37 -47 -45 -30 -47 -36 -21 -71 17 -22 30 -28 30 -14 1 14 14 25 30 25 16 0 34 9 41 20 17 28 -8 100 -35 100 -12 0 -16 -6 -8 -13z"/> <path d="M2360 7258 c0 -10 0 -22 0 -28 -1 -5 -23 -31 -50 -59 -130 -129 24 -281 238 -236 53 12 97 12 108 1 10 -10 28 -5 43 13 21 26 18 37 -20 68 l-46 37 53 54 c30 30 54 64 54 77 0 17 -6 17 -24 -1 -18 -18 -32 -16 -60 10 -28 25 -42 28 -60 10 -33 -33 -62 -30 -108 12 -44 42 -128 69 -128 42z m151 -147 c50 -76 10 -131 -94 -131 -70 0 -78 4 -57 30 31 37 12 90 -32 90 -27 0 -28 5 -8 30 41 49 154 38 191 -19z"/> <path d="M2010 6980 c-7 -12 -21 -15 -32 -9 -23 14 -66 -29 -74 -76 -3 -22 4 -30 20 -23 28 11 126 128 109 128 -6 0 -16 -9 -23 -20z"/> <path d="M2220 6920 c0 -36 101 -85 177 -85 85 0 170 37 152 66 -7 12 -25 12 -49 -1 -57 -30 -192 -24 -220 10 -28 34 -60 40 -60 10z"/> <path d="M2011 6862 c-7 -12 -2 -22 11 -22 14 0 19 -6 12 -13 -7 -7 -4 -28 7 -48 14 -28 11 -38 -16 -43 -28 -6 -26 -10 10 -20 48 -13 68 48 25 74 -12 7 -17 19 -12 27 5 8 2 27 -7 41 -11 18 -20 20 -30 4z"/> <path d="M2991 6387 c-73 -140 -241 -259 -394 -279 -100 -14 -135 -48 -48 -48 204 0 537 271 507 412 -3 16 -33 -22 -65 -85z"/> <path d="M3471 6281 c-8 -12 -22 -17 -31 -11 -21 13 -47 -26 -51 -74 -1 -24 10 -33 39 -28 26 4 42 21 41 44 0 21 9 44 20 52 11 8 14 19 7 26 -6 7 -18 3 -25 -9z"/> <path d="M3130 6140 c5 -8 -7 -20 -28 -25 -46 -12 -109 -104 -97 -139 6 -16 20 -4 36 29 16 35 41 55 68 55 79 0 119 68 51 86 -22 6 -36 3 -30 -6z"/> <path d="M3254 6108 c12 -33 58 -37 76 -8 7 12 23 15 36 7 14 -8 17 -6 8 5 -29 30 -132 27 -120 -4z"/> <path d="M2905 6037 c-16 -16 -17 -35 -3 -60 28 -53 68 -46 68 11 0 37 -6 44 -25 27 -20 -16 -23 -13 -13 12 14 39 5 42 -27 10z"/> <path d="M3440 5921 c0 -79 -8 -101 -38 -110 -41 -13 -73 -97 -41 -108 11 -4 32 -19 47 -34 37 -37 64 22 30 64 -19 22 -11 27 38 27 67 0 97 48 74 120 -7 23 -4 40 9 40 11 0 21 9 21 21 0 11 -11 19 -25 18 -49 -7 -77 1 -66 19 6 10 -3 23 -19 29 -24 9 -30 -8 -30 -86z"/> <path d="M3309 5967 c6 -17 17 -52 23 -79 7 -26 21 -48 32 -48 11 0 15 14 8 30 -7 17 -17 44 -24 60 -7 17 -2 30 13 30 34 0 7 27 -33 32 -20 3 -27 -6 -19 -25z"/> <path d="M3025 5910 c-52 -59 -31 -121 40 -121 77 1 97 53 44 112 -41 46 -51 47 -84 9z"/> <path d="M2728 5808 c6 -15 1 -28 -12 -28 -12 0 -19 -4 -13 -9 15 -16 94 12 103 36 5 13 -12 24 -40 26 -34 2 -46 -5 -38 -25z"/> <path d="M3539 5628 c-11 -28 -35 -56 -54 -61 -19 -5 -45 -31 -58 -58 l-23 -49 55 39 c69 49 92 79 106 136 15 61 -1 57 -26 -7z"/> <path d="M3414 5240 c6 -22 1 -40 -12 -40 -12 0 -23 16 -24 35 0 19 -6 24 -11 11 -5 -13 6 -47 25 -76 l35 -53 24 56 c15 38 17 65 4 82 -30 38 -53 30 -41 -15z"/> <path d="M2690 5000 c-7 -12 -19 -17 -26 -12 -8 4 -26 -5 -40 -20 -21 -23 -19 -28 14 -28 22 0 47 12 56 27 9 15 30 32 46 38 24 10 24 12 -4 13 -18 1 -39 -7 -46 -18z"/> <path d="M2934 4953 c-17 -26 -28 -64 -24 -85 4 -21 8 -49 8 -63 1 -14 16 -25 32 -25 17 0 30 11 31 25 1 14 6 63 12 110 12 95 -12 110 -59 38z"/> <path d="M1222 6034 c-44 -90 -57 -234 -22 -234 11 0 20 34 20 76 0 41 18 111 40 154 46 90 46 90 22 90 -10 0 -37 -39 -60 -86z"/> <path d="M2640 4470 c0 -6 11 -29 25 -51 22 -35 18 -45 -35 -87 -33 -27 -53 -55 -45 -64 8 -8 37 6 64 31 l48 45 31 -61 c42 -80 41 -83 -18 -83 -27 0 -50 -9 -50 -20 0 -11 31 -20 68 -20 76 0 83 35 32 144 -23 49 -20 58 32 104 42 37 49 51 25 51 -17 1 -43 -12 -57 -29 -34 -41 -55 -38 -70 10 -11 35 -50 58 -50 30z"/> <path d="M2995 4435 c-29 -43 -32 -44 -69 -10 -59 52 -75 42 -30 -19 39 -54 39 -54 -2 -110 -23 -30 -35 -62 -26 -70 8 -8 23 -2 34 15 10 16 28 43 39 59 16 25 27 21 70 -27 28 -32 57 -52 63 -45 7 7 -7 33 -31 58 -50 54 -55 99 -13 134 17 14 30 33 30 42 0 33 -35 18 -65 -27z"/> <path d="M3094 4187 c-27 -27 11 -45 72 -34 99 19 112 47 21 47 -44 0 -86 -6 -93 -13z"/> <path d="M2880 4160 c0 -11 26 -20 59 -20 32 0 64 9 71 20 7 12 -16 20 -59 20 -39 0 -71 -9 -71 -20z"/> <path d="M2641 4109 c-1 -12 12 -39 28 -60 25 -35 23 -45 -24 -94 -65 -68 -43 -99 25 -35 59 55 126 4 112 -85 -1 -8 41 -14 93 -12 64 2 75 6 35 11 -106 14 -178 154 -110 216 21 19 34 44 27 54 -6 11 -33 -1 -59 -25 l-47 -45 -40 48 c-22 26 -40 38 -40 27z"/> <path d="M2961 4097 c-1 -17 12 -43 29 -57 26 -21 24 -32 -12 -83 -55 -76 -30 -103 28 -31 l44 55 40 -60 c22 -34 47 -61 55 -61 32 0 13 55 -35 100 l-50 47 43 47 c24 25 37 53 29 61 -9 8 -33 -6 -54 -32 l-38 -47 -39 47 c-31 37 -40 40 -40 14z"/> <path d="M2400 3860 c0 -11 27 -20 60 -20 33 0 60 9 60 20 0 11 -27 20 -60 20 -33 0 -60 -9 -60 -20z"/> <path d="M3040 3820 c0 -11 31 -20 69 -20 38 0 74 9 81 20 7 12 -20 20 -69 20 -44 0 -81 -9 -81 -20z"/> <path d="M2507 3411 c31 -46 30 -52 -18 -108 -28 -34 -42 -65 -30 -72 10 -7 34 11 52 38 43 66 61 64 99 -9 30 -59 70 -81 70 -39 0 11 -20 47 -44 80 l-43 59 47 50 c29 31 37 50 21 50 -15 0 -38 -16 -52 -35 -24 -33 -27 -33 -64 0 -55 50 -75 43 -38 -14z"/> <path d="M2800 3430 c0 -6 11 -28 24 -50 21 -33 17 -47 -33 -99 -74 -77 -50 -106 27 -33 l58 55 23 -71 c13 -40 32 -72 43 -72 27 0 22 37 -16 101 -33 56 -33 58 21 100 65 51 56 78 -10 31 -59 -41 -72 -40 -87 8 -11 35 -50 58 -50 30z"/> <path d="M2300 3140 c0 -11 41 -20 90 -20 50 0 90 9 90 20 0 11 -40 20 -90 20 -49 0 -90 -9 -90 -20z"/> <path d="M2550 3140 c7 -11 44 -20 82 -20 42 0 65 8 58 20 -7 11 -44 20 -82 20 -42 0 -65 -8 -58 -20z"/> <path d="M2760 3125 c0 -11 20 -26 45 -32 71 -19 175 -15 175 7 0 11 -21 20 -47 20 -27 0 -76 6 -110 13 -37 7 -63 4 -63 -8z"/> <path d="M2501 2989 c-1 -11 12 -39 29 -62 26 -39 25 -48 -13 -96 -23 -29 -35 -59 -28 -67 8 -7 31 9 52 36 l39 50 60 -70 c67 -79 82 -47 19 41 -39 55 -39 60 -7 109 44 67 20 90 -29 28 l-39 -47 -41 49 c-23 28 -42 41 -42 29z"/> <path d="M2820 2984 c0 -9 13 -34 29 -55 25 -35 23 -45 -24 -94 -63 -67 -44 -100 22 -37 l48 44 45 -76 c25 -42 50 -65 55 -51 4 14 -10 55 -33 91 -40 66 -40 67 -1 100 21 18 39 44 39 57 0 13 -22 3 -49 -22 l-49 -46 -24 52 c-23 50 -58 72 -58 37z"/> <path d="M2300 2720 c0 -26 92 -48 134 -31 30 11 31 16 5 32 -39 24 -139 24 -139 -1z"/> <path d="M2520 2705 c0 -21 158 -53 176 -36 18 18 -4 29 -92 43 -52 8 -84 5 -84 -7z"/> <path d="M2800 2682 c0 -17 103 -45 117 -32 4 4 1 17 -6 29 -16 25 -111 28 -111 3z"/> <path d="M2453 2525 c-7 -11 1 -32 17 -45 41 -34 37 -87 -10 -130 -21 -19 -33 -45 -26 -56 7 -12 32 4 59 38 l46 58 36 -49 c19 -27 41 -58 49 -69 8 -12 20 -15 28 -7 7 8 -10 45 -38 82 -52 68 -52 69 -13 104 21 19 39 49 39 66 0 22 -13 18 -51 -18 l-52 -48 -35 47 c-21 27 -42 39 -49 27z"/> <path d="M2800 2511 c0 -5 11 -32 23 -60 21 -45 18 -57 -20 -92 -39 -37 -57 -79 -34 -79 5 0 32 24 59 53 l49 54 35 -74 c20 -40 43 -73 52 -73 28 0 18 42 -25 102 l-41 57 41 44 c58 62 51 94 -8 38 l-48 -45 -26 42 c-24 38 -57 57 -57 33z"/> <path d="M2240 2260 c0 -11 37 -20 81 -20 49 0 76 8 69 20 -7 11 -43 20 -81 20 -38 0 -69 -9 -69 -20z"/> <path d="M2472 2243 c-6 -10 2 -24 20 -31 48 -19 108 -14 108 8 0 11 -13 20 -28 20 -16 0 -42 5 -58 11 -17 7 -35 3 -42 -8z"/> <path d="M2640 2200 c0 -11 32 -20 70 -20 39 0 70 9 70 20 0 11 -31 20 -70 20 -38 0 -70 -9 -70 -20z"/> <path d="M2852 2183 c-8 -12 16 -26 58 -34 67 -13 110 -2 87 21 -23 22 -133 33 -145 13z"/> <path d="M2401 2084 c-1 -15 9 -45 20 -67 18 -33 13 -47 -30 -84 -28 -24 -51 -51 -51 -59 0 -29 45 -12 80 31 l36 45 36 -75 c19 -41 43 -75 52 -75 25 0 19 31 -19 99 -35 61 -34 63 15 100 64 49 40 75 -28 30 -29 -18 -52 -25 -52 -15 0 30 -59 99 -59 70z"/> <path d="M2721 2002 c-1 -16 14 -45 32 -66 31 -34 31 -39 -10 -82 -43 -47 -57 -94 -26 -94 9 0 28 23 43 50 25 46 79 70 80 35 1 -34 75 -109 87 -89 7 11 -10 48 -38 81 -49 59 -50 63 -17 113 44 67 20 90 -29 28 l-39 -47 -41 49 c-27 32 -42 40 -42 22z"/> <path d="M3950 1050 c16 -75 33 -93 67 -72 17 11 22 33 14 60 -8 23 -23 37 -35 30 -11 -7 -29 -1 -40 14 -13 19 -15 9 -6 -32z"/> <path d="M4246 7965 c328 -3 859 -3 1180 0 321 3 53 6 -596 6 -649 0 -912 -3 -584 -6z"/> <path d="M4336 7825 c312 -3 816 -3 1120 0 305 3 50 6 -566 6 -616 0 -865 -3 -554 -6z"/> <path d="M4366 7725 c306 -3 801 -3 1100 0 299 3 49 6 -556 6 -605 0 -850 -3 -544 -6z"/> <path d="M4576 6625 c268 -3 700 -3 960 0 261 3 42 6 -486 6 -528 0 -741 -3 -474 -6z"/> </g> </svg> 