<?xml version="1.0" standalone="no"?>
<!DOCTYPE svg PUBLIC "-//W3C//DTD SVG 20010904//EN"
 "http://www.w3.org/TR/2001/REC-SVG-20010904/DTD/svg10.dtd">
<svg version="1.0" xmlns="http://www.w3.org/2000/svg"
 width="78.000000pt" height="300.000000pt" viewBox="0 0 78.000000 300.000000"
 preserveAspectRatio="xMidYMid meet">
<metadata>
Created by potrace 1.10, written by Peter Selinger 2001-2011
</metadata>
<g transform="translate(0.000000,300.000000) scale(0.100000,-0.100000)"
fill="#607131" stroke="none">
<path d="M393 2959 c-67 -26 -117 -83 -133 -151 -9 -34 -10 -93 -5 -192 8
-169 -1 -207 -57 -225 -80 -26 -137 -134 -164 -310 -26 -173 -13 -337 45 -576
11 -44 26 -107 33 -140 12 -58 30 -76 36 -38 3 15 1 16 -8 3 -9 -12 -10 -10
-5 9 5 16 4 21 -4 17 -7 -5 -11 3 -11 23 0 16 -2 36 -5 43 -4 10 8 18 42 25
26 6 51 10 54 7 11 -6 31 -92 24 -103 -3 -6 -2 -11 4 -11 19 0 19 16 2 68 -23
66 -18 98 18 107 32 8 60 33 72 63 7 17 16 22 46 22 52 0 69 -13 65 -50 -2
-17 3 -42 12 -55 21 -32 20 -52 -1 -59 -15 -5 -18 -21 -21 -113 -3 -97 -36
-416 -47 -453 -4 -12 -55 -346 -55 -357 0 -2 -29 -3 -65 -3 l-65 0 0 65 c0 35
7 141 16 235 14 155 14 183 0 292 -20 152 -20 155 5 163 17 6 19 12 14 33 -4
15 -8 38 -10 52 -1 14 -7 34 -13 45 -11 19 -11 19 -11 -5 0 -14 6 -43 14 -65
20 -56 9 -57 -16 -1 -11 26 -23 45 -26 43 -2 -3 5 -23 16 -46 12 -22 21 -44
21 -48 0 -16 -26 20 -42 60 -9 23 -17 35 -17 27 -1 -9 8 -33 19 -55 11 -21 18
-40 16 -43 -3 -2 -11 9 -19 24 -9 18 -16 23 -22 15 -4 -7 0 -20 8 -29 19 -23
42 -259 34 -349 -4 -37 -11 -108 -16 -158 -13 -111 -15 -292 -6 -405 4 -55 3
-95 -4 -113 -8 -21 -8 -46 0 -93 10 -58 13 -64 35 -64 15 0 24 6 24 15 0 24
18 18 42 -15 12 -17 40 -39 63 -50 42 -20 129 -27 139 -11 3 4 -16 35 -42 68
-68 84 -97 165 -88 246 4 34 11 110 16 169 9 115 24 222 46 333 13 69 33 224
44 345 2 22 9 -17 49 -243 5 -32 4 -85 -5 -150 -8 -56 -14 -136 -15 -177 l-2
-75 -8 60 c-8 62 4 233 19 276 6 16 1 58 -14 129 -13 58 -23 90 -23 72 -1 -18
6 -64 15 -102 11 -51 13 -78 5 -107 -5 -21 -12 -63 -16 -93 -8 -74 -14 -543
-7 -602 4 -42 8 -48 28 -48 17 0 25 7 30 25 8 31 10 31 48 1 17 -13 46 -27 65
-31 47 -10 141 3 141 20 0 7 -23 30 -51 50 -37 27 -57 51 -76 92 -25 55 -26
56 -15 192 6 75 14 152 17 171 36 207 53 358 59 525 4 116 5 120 28 125 37 9
48 58 42 190 -3 63 -9 264 -13 445 -9 349 -13 377 -60 419 -27 25 -28 86 -1
199 37 155 23 278 -40 368 -42 58 -151 75 -247 38z m201 -33 c39 -25 102 -166
75 -166 -5 0 -9 4 -9 9 0 5 -13 13 -28 19 -16 5 -43 23 -62 40 l-34 31 -23
-34 c-13 -19 -28 -35 -32 -35 -5 0 -23 -14 -40 -32 l-31 -31 -25 27 c-24 26
-28 27 -48 13 -13 -9 -23 -27 -25 -47 -4 -38 15 -90 33 -90 7 0 15 -15 18 -32
6 -38 0 -227 -9 -276 -4 -18 -2 -38 4 -45 5 -6 15 -61 21 -122 7 -60 14 -126
16 -145 4 -33 2 -30 -40 35 -29 46 -44 80 -43 100 0 23 2 25 5 8 7 -36 20 -27
15 10 l-5 32 20 -25 20 -24 -4 54 c-3 30 -10 60 -15 65 -7 7 -9 -2 -5 -26 5
-32 2 -38 -19 -48 -13 -6 -24 -17 -24 -25 0 -10 -6 -13 -15 -10 -8 4 13 -41
48 -99 40 -65 64 -116 65 -136 0 -17 -2 -31 -6 -31 -4 0 -7 -32 -7 -70 0 -91
-24 -107 -108 -72 -16 7 -33 10 -38 6 -5 -3 -9 2 -9 12 0 14 -3 14 -15 4 -9
-7 -18 -11 -20 -8 -2 2 -6 35 -9 74 -3 49 -2 57 4 29 4 -22 8 -32 8 -21 2 14
8 17 25 13 12 -3 39 -9 60 -13 27 -4 37 -11 33 -20 -6 -17 -5 -17 29 -4 25 10
25 10 9 41 -10 20 -19 28 -23 21 -9 -15 -130 6 -132 22 -1 6 -2 97 -3 203 -1
231 5 236 54 44 5 -18 14 -39 21 -45 9 -8 10 -5 5 14 -42 151 -44 215 -7 310
19 49 20 66 14 160 -13 184 -3 244 48 299 60 63 194 83 263 37z m28 -162 l43
-18 -32 -4 c-20 -2 -33 -9 -33 -18 0 -18 -27 -18 -37 0 -8 14 -29 19 -70 17
-38 -2 -26 -16 13 -16 42 0 67 -26 47 -46 -15 -15 -68 5 -58 21 10 16 35 12
29 -5 -7 -16 11 -21 21 -6 8 15 -16 26 -57 27 -43 0 -44 -2 -22 -34 20 -29 78
-31 96 -2 17 27 24 25 37 -11 15 -43 15 -42 -19 -35 -34 6 -39 1 -11 -14 28
-15 54 -2 47 24 -4 17 0 21 19 22 36 3 37 -43 4 -108 -31 -60 -51 -69 -112
-51 -57 17 -131 64 -141 88 -3 9 -6 28 -6 42 0 19 -4 24 -17 19 -9 -4 -20 -1
-25 6 -12 20 -9 74 5 87 20 16 37 -6 37 -47 0 -18 5 -43 11 -54 10 -19 13 -15
34 36 28 68 42 87 61 79 10 -4 20 8 32 35 l17 41 22 -28 c13 -16 42 -37 65
-47z m28 -59 c0 -27 -14 -32 -34 -12 -17 17 -9 37 15 37 14 0 19 -7 19 -25z
m30 -5 c0 -11 -4 -20 -9 -20 -6 0 -9 9 -8 20 1 11 5 20 9 20 4 0 8 -9 8 -20z
m-184 -27 c-7 -7 -26 7 -26 19 0 6 6 6 15 -2 9 -7 13 -15 11 -17z m-29 -157
c18 -9 39 -16 48 -16 13 0 15 -18 15 -115 0 -70 4 -115 10 -115 6 0 10 -29 10
-68 0 -64 -2 -70 -25 -80 -33 -15 -35 -15 -35 3 0 8 -5 15 -11 15 -5 0 -7 -5
-3 -12 5 -8 2 -9 -12 -3 -10 4 -29 10 -42 13 -13 2 -26 10 -28 17 -9 23 -20
193 -12 189 5 -3 8 48 8 112 l0 117 23 -20 c12 -11 36 -28 54 -37z m170 -83
c0 -67 10 -124 40 -228 3 -11 2 -17 -2 -13 -8 7 -35 -15 -35 -28 0 -4 -10 -30
-23 -58 -13 -28 -28 -62 -34 -76 -10 -21 -11 -13 -11 50 0 41 -3 87 -7 103 -6
22 -4 26 9 21 9 -3 16 -12 16 -19 0 -8 4 -16 9 -19 5 -3 9 5 9 19 0 14 -4 23
-8 20 -4 -2 -17 17 -28 44 -17 37 -22 67 -22 134 0 79 2 87 19 87 10 0 29 9
42 20 13 10 24 19 25 20 1 0 1 -35 1 -77z m-425 -76 c-12 -13 -22 -27 -22 -33
0 -5 10 2 21 16 15 18 19 20 15 7 -3 -10 -6 -28 -6 -40 -1 -21 -2 -21 -25 6
-32 36 -31 51 3 63 36 14 40 9 14 -19z m458 -32 c0 -19 -2 -35 -4 -35 -2 0 -6
16 -8 35 -2 19 0 35 4 35 4 0 8 -16 8 -35z m-486 -175 c0 -74 -2 -198 -5 -275
-2 -90 0 -158 8 -190 7 -27 16 -78 21 -113 l9 -62 -36 -10 c-54 -15 -84 -13
-78 5 4 8 2 17 -4 20 -5 4 -7 11 -4 16 4 5 2 9 -3 9 -6 0 -20 53 -31 118 -22
118 -23 221 -2 246 6 7 6 17 1 26 -5 8 -6 26 -3 39 4 17 2 22 -6 17 -15 -10
-14 11 4 116 16 88 53 188 83 221 16 18 17 18 32 -15 11 -24 14 -69 14 -168z
m536 45 c6 -108 5 -219 -1 -290 -4 -38 -3 -80 2 -93 6 -16 6 -21 -2 -16 -8 5
-8 1 0 -14 6 -11 10 -56 10 -99 -1 -43 0 -80 1 -83 1 -3 4 -17 6 -32 3 -26 0
-28 -30 -28 l-34 0 -12 96 c-8 64 -8 99 -1 107 5 7 9 56 9 109 0 66 5 112 17
148 13 41 16 70 11 124 -3 39 -8 103 -11 141 l-5 70 18 -40 c11 -22 20 -67 22
-100z m-36 -37 c9 -36 7 -104 -5 -135 -6 -15 -15 -52 -20 -82 -9 -60 -16 -72
-29 -52 -6 11 -12 6 -24 -18 -18 -34 -20 -30 29 -46 8 -2 15 0 15 5 0 6 -9 10
-20 10 -22 0 -25 7 -10 30 8 13 10 12 10 -2 0 -10 7 -18 15 -18 11 0 15 -12
15 -49 0 -41 -4 -51 -20 -56 -10 -3 -28 -1 -39 4 -18 10 -19 21 -18 106 1 52
-1 95 -5 95 -8 0 5 44 40 128 l26 64 18 -24 19 -23 -6 25 c-4 14 -9 33 -11 43
-3 9 -1 17 4 17 5 0 12 -10 16 -22z m-213 -54 c22 -11 29 -11 45 1 37 28 44
19 44 -56 0 -44 -4 -68 -10 -64 -5 3 -10 1 -10 -4 0 -6 5 -11 10 -11 6 0 10
-30 10 -69 0 -37 3 -95 6 -129 7 -59 7 -60 31 -51 31 12 43 11 43 -1 0 -32
-227 -41 -365 -14 -78 15 -93 22 -80 36 3 2 35 -4 72 -13 38 -10 82 -18 99
-18 30 -1 31 1 38 52 3 28 6 87 6 129 0 71 2 77 22 80 12 2 23 9 26 16 3 11 1
11 -16 1 -12 -7 -23 -11 -25 -9 -3 3 -8 38 -11 78 l-7 74 23 -7 c13 -4 35 -14
49 -21z m-186 -239 c54 -17 23 -18 -40 -1 -30 9 -40 14 -25 14 14 0 43 -5 65
-13z m65 -20 c0 -8 -4 -15 -10 -15 -5 0 -10 7 -10 15 0 8 5 15 10 15 6 0 10
-7 10 -15z m-60 -156 c96 -25 260 -21 333 6 9 4 17 3 17 -4 0 -36 -326 -45
-391 -11 -10 6 -23 9 -30 8 -6 -2 -14 3 -16 10 -5 13 4 12 87 -9z m-56 -34
c-4 -17 -2 -26 7 -28 8 -2 29 -9 47 -15 32 -10 34 -9 47 21 l14 32 1 -27 c0
-16 -4 -28 -9 -28 -5 0 -14 -14 -22 -31 -12 -30 -73 -68 -87 -55 -3 3 9 11 27
17 17 6 36 19 41 29 13 25 12 40 -1 17 -10 -18 -68 -52 -75 -44 -8 7 -8 113 0
125 12 20 17 14 10 -13z m416 0 c0 -8 -7 -15 -15 -15 -26 0 -18 20 13 29 1 1
2 -6 2 -14z m-37 -22 c3 -16 13 -37 22 -48 14 -19 15 -19 4 8 -7 15 -9 30 -6
34 11 10 16 0 22 -46 5 -39 3 -42 -11 -31 -15 13 -54 86 -54 102 0 20 18 5 23
-19z m-294 1 c13 -11 -8 -10 -34 2 l-30 13 30 -6 c17 -3 32 -7 34 -9z m135 -9
c-4 -22 -1 -25 28 -26 41 -2 36 -2 80 6 32 6 37 4 43 -16 4 -12 21 -35 37 -50
l30 -27 -1 -199 c0 -206 -15 -375 -53 -622 -14 -92 -27 -145 -35 -148 -7 -3
-34 -2 -60 2 l-46 7 7 96 c3 53 11 133 17 177 9 73 7 96 -23 265 -35 194 -41
340 -14 340 7 0 21 7 32 16 16 13 16 15 1 10 -15 -5 -17 1 -12 67 l4 72 -13
-55 -14 -55 -1 53 c0 28 -5 52 -10 52 -5 0 -9 14 -9 30 1 17 5 30 9 30 4 0 6
-11 3 -25z m-24 0 c0 -16 -45 -21 -54 -6 -8 12 4 21 31 21 14 0 23 -6 23 -15z
m130 0 c-28 -16 -90 -20 -90 -6 0 11 29 18 80 19 l35 1 -25 -14z m180 -104 c0
-10 -24 -21 -46 -21 -28 0 -13 26 16 28 17 1 30 -2 30 -7z m-522 -46 c-7 -8
-123 -18 -116 -10 11 12 113 32 117 22 1 -4 1 -10 -1 -12z m517 -70 c-1 -46
-5 -88 -9 -92 -5 -4 -6 9 -3 30 3 20 2 37 -4 37 -5 0 -9 10 -9 23 -1 12 -7 33
-15 47 -20 35 -19 40 13 40 l28 0 -1 -85z m12 8 c-3 -10 -5 -4 -5 12 0 17 2
24 5 18 2 -7 2 -21 0 -30z m-47 6 c0 -6 -4 -7 -10 -4 -5 3 -10 11 -10 16 0 6
5 7 10 4 6 -3 10 -11 10 -16z m-5 -29 c-3 -5 -1 -10 4 -10 6 0 11 -17 10 -37
l0 -38 -15 45 c-17 54 -16 50 -3 50 5 0 7 -4 4 -10z m-508 -202 c-2 -13 -4 -5
-4 17 -1 22 1 32 4 23 2 -10 2 -28 0 -40z m10 -75 c-3 -10 -5 -2 -5 17 0 19 2
27 5 18 2 -10 2 -26 0 -35z m16 -113 c4 -56 3 -65 -3 -35 -9 40 -13 122 -6
114 2 -2 6 -38 9 -79z m-12 -211 c-6 -55 -11 -140 -11 -190 0 -50 -3 -88 -7
-86 -9 6 1 291 13 357 13 77 16 25 5 -81z m349 -260 c36 -1 40 -2 20 -8 -33
-10 -110 -2 -110 11 0 6 10 8 23 4 12 -3 42 -6 67 -7z m-7 -29 c31 0 57 -4 57
-10 0 -11 -65 -13 -122 -4 -21 4 -38 11 -38 16 0 6 10 8 23 4 12 -3 48 -6 80
-6z m-224 -16 c2 -2 -28 -4 -67 -4 -40 0 -72 4 -72 9 0 8 130 3 139 -5z m21
-25 c0 -12 -64 -19 -112 -13 -77 10 -64 19 28 19 46 0 84 -3 84 -6z m178 4
c-10 -2 -26 -2 -35 0 -10 3 -2 5 17 5 19 0 27 -2 18 -5z m72 -23 c0 -6 -28
-10 -64 -10 -36 0 -68 5 -71 10 -4 6 20 10 64 10 41 0 71 -4 71 -10z m-260
-32 c0 -11 -147 -10 -154 0 -2 4 31 8 75 7 43 0 79 -3 79 -7z m238 -3 c2 -2 5
-19 6 -37 4 -50 51 -142 93 -184 l36 -37 -61 5 c-43 3 -71 11 -92 26 -16 12
-39 22 -52 22 -36 0 -51 15 -45 42 4 14 7 58 8 100 l1 75 52 -5 c28 -2 52 -6
54 -7z m-259 -93 c-1 -58 3 -75 30 -127 41 -79 52 -96 76 -116 11 -10 17 -20
13 -24 -15 -15 -90 8 -129 41 -22 18 -58 44 -81 56 l-40 23 6 59 c3 32 6 81 6
107 l0 49 60 0 61 0 -2 -68z m181 -127 c0 -1 -6 -8 -14 -14 -11 -9 -15 -7 -19
8 -3 14 0 17 14 14 11 -3 19 -7 19 -8z m-274 -62 c-8 -8 -36 5 -36 17 0 7 6 7
21 0 11 -7 18 -14 15 -17z"/>
<path d="M360 2715 c-8 -45 -8 -47 2 -37 5 5 8 18 5 28 -3 11 -6 15 -7 9z"/>
<path d="M545 2581 c-18 -7 -18 -9 8 -25 17 -12 33 -15 44 -11 15 7 13 9 -12
15 -29 7 -28 8 10 9 30 1 36 4 25 11 -18 11 -47 12 -75 1z"/>
<path d="M625 2711 c-3 -5 -2 -12 3 -15 5 -3 9 1 9 9 0 17 -3 19 -12 6z"/>
<path d="M620 2178 c0 -19 2 -20 10 -8 13 19 13 30 0 30 -5 0 -10 -10 -10 -22z"/>
<path d="M90 1846 c0 -2 11 -6 25 -8 14 -3 25 -1 25 3 0 5 -11 9 -25 9 -14 0
-25 -2 -25 -4z"/>
<path d="M81 1816 c10 -9 79 -14 74 -5 -4 5 -22 9 -42 9 -20 0 -34 -2 -32 -4z"/>
</g>
</svg>
