<?xml version="1.0" standalone="no"?>
<!DOCTYPE svg PUBLIC "-//W3C//DTD SVG 20010904//EN"
 "http://www.w3.org/TR/2001/REC-SVG-20010904/DTD/svg10.dtd">
<svg version="1.0" xmlns="http://www.w3.org/2000/svg"
 width="206.000000pt" height="300.000000pt" viewBox="0 0 206.000000 300.000000"
 preserveAspectRatio="xMidYMid meet">
<metadata>
Created by potrace 1.10, written by Peter Selinger 2001-2011
</metadata>
<g transform="translate(0.000000,300.000000) scale(0.100000,-0.100000)"
fill="#fadd5e" stroke="none">
<path d="M862 2888 c-7 -7 -12 -23 -12 -36 0 -18 -4 -23 -16 -18 -9 3 -22 6
-30 6 -8 0 -14 9 -14 19 0 38 -66 42 -107 7 -25 -21 -26 -26 -15 -50 14 -31
15 -47 5 -44 -5 2 -25 -7 -45 -19 -33 -20 -38 -27 -38 -60 0 -21 8 -51 18 -68
12 -20 17 -43 14 -70 -3 -31 2 -49 22 -78 14 -21 26 -51 26 -66 0 -16 11 -40
26 -56 26 -29 26 -29 6 -44 -11 -9 -36 -29 -56 -44 -71 -55 -111 -174 -100
-299 6 -71 9 -78 28 -78 20 1 20 2 4 14 -17 13 -26 66 -10 66 36 -1 85 -159
111 -360 23 -176 35 -353 21 -305 -9 30 -9 30 5 -103 1 -17 -1 -32 -6 -32 -9
0 -22 40 -17 56 1 5 -3 25 -10 44 -18 51 -34 20 -26 -50 5 -46 4 -53 -7 -42
-10 9 -14 38 -14 92 0 44 -3 80 -7 80 -5 0 -8 11 -8 25 0 14 5 25 10 25 6 0
10 8 9 18 0 10 -3 12 -6 5 -15 -39 -23 2 -23 120 -1 84 -8 170 -20 237 -11 61
-19 90 -19 68 -1 -20 6 -70 14 -110 10 -43 13 -91 10 -118 -3 -25 -1 -92 5
-150 6 -58 13 -137 16 -177 6 -109 30 -150 81 -137 21 6 21 4 16 -178 -2 -100
0 -223 5 -273 8 -79 9 -64 8 120 -2 380 5 557 21 551 7 -3 55 -11 106 -17 106
-13 235 -6 297 16 35 12 45 13 52 3 13 -21 9 -126 -6 -163 -10 -23 -17 -89
-20 -195 -3 -89 -8 -180 -12 -203 -4 -30 -2 -38 5 -27 5 9 13 99 16 200 5 127
12 198 22 227 11 30 14 64 11 113 -5 70 -5 71 28 103 19 17 34 37 34 43 0 7
14 23 31 36 91 68 229 235 229 277 0 85 -122 351 -196 425 -38 39 -90 66 -129
66 -5 0 -32 11 -60 25 -52 27 -69 55 -53 88 5 10 9 53 8 95 -2 63 3 88 25 140
35 83 19 133 -46 147 -16 4 -29 10 -29 14 0 4 -11 14 -25 21 -14 8 -25 21 -24
29 3 31 -1 38 -26 49 -34 16 -98 15 -113 0z m117 -22 c18 -11 -19 -66 -44 -66
-24 0 -65 26 -65 42 0 6 7 19 15 29 12 13 24 15 49 9 19 -4 39 -11 45 -14z
m-255 -8 c-5 -8 -1 -8 10 1 15 13 19 13 27 0 5 -8 9 -17 9 -21 0 -11 -43 -38
-62 -38 -21 0 -22 4 -6 33 10 20 10 21 -5 8 -21 -17 -22 -8 -1 13 18 19 38 21
28 4z m96 -47 c-17 -32 -11 -36 11 -7 l20 26 27 -20 c15 -11 39 -21 53 -22 30
-2 44 -40 53 -147 4 -37 15 -79 26 -98 25 -42 26 -65 3 -56 -11 4 -14 3 -9 -5
8 -13 -18 -45 -28 -35 -3 4 -6 1 -6 -5 0 -6 -8 -9 -17 -6 -15 5 -14 3 1 -7 17
-10 24 -7 58 30 21 22 48 41 59 41 19 0 20 -4 15 -57 -3 -32 -6 -72 -6 -90 0
-29 -6 -35 -53 -58 -63 -32 -134 -85 -204 -154 -29 -28 -55 -51 -57 -51 -13 0
-29 73 -30 140 -1 43 -4 76 -8 74 -11 -7 -2 44 11 60 9 10 20 12 40 6 29 -8
61 3 48 17 -5 4 -12 1 -16 -6 -6 -9 -11 -10 -15 -3 -4 6 -13 9 -21 5 -8 -3
-15 0 -15 6 0 6 10 11 23 11 30 1 107 36 107 50 0 6 -13 1 -28 -10 -36 -27
-102 -39 -102 -18 0 8 16 20 35 27 21 7 49 31 69 57 20 26 36 39 39 32 2 -7 7
-10 11 -7 8 8 -21 39 -36 39 -5 0 -7 -7 -4 -16 9 -23 -74 -104 -106 -104 -41
0 -86 71 -54 83 8 3 22 17 32 32 13 20 14 28 4 40 -14 17 -85 21 -95 5 -4 -6
9 -10 31 -10 30 0 34 -2 25 -14 -8 -10 -9 -16 -1 -21 5 -3 14 4 19 17 6 14 10
17 10 7 1 -9 -8 -24 -19 -34 -16 -14 -20 -15 -24 -4 -13 41 -14 43 -15 22 -1
-13 -6 -23 -12 -23 -5 0 -7 5 -4 11 4 5 0 18 -9 28 -11 12 -13 25 -7 46 6 26
12 30 42 29 38 -1 54 13 37 33 -13 16 -40 17 -57 1 -11 -11 -12 -8 -6 12 10
32 10 33 39 33 14 0 23 4 20 9 -4 5 -15 7 -26 5 -32 -9 -15 16 20 27 17 6 39
19 49 29 9 9 28 17 40 17 20 0 22 -3 13 -19z m228 -35 c13 -11 24 -19 25 -17
3 6 47 -10 48 -17 0 -4 2 -26 4 -50 2 -30 -3 -54 -21 -87 -13 -25 -23 -55 -21
-68 3 -34 -33 -28 -59 11 -14 20 -24 55 -28 95 -4 34 -12 81 -18 104 -14 57
-6 78 24 62 13 -6 33 -21 46 -33z m-395 -76 c-22 -97 -24 -99 -39 -65 -22 51
-17 81 18 109 18 14 33 24 34 23 1 -1 -5 -31 -13 -67z m72 -9 c3 -5 1 -12 -4
-15 -5 -4 -12 0 -14 6 -4 10 -8 9 -16 -2 -11 -16 -27 -8 -16 9 8 13 42 14 50
2z m-41 -169 c19 -15 21 -58 4 -68 -12 -8 -40 24 -33 37 3 4 1 9 -3 11 -5 1
-12 17 -15 35 -6 31 -6 32 13 15 10 -9 26 -23 34 -30z m66 -111 c0 -16 -7 -34
-15 -41 -13 -11 -18 -10 -30 6 -8 10 -15 22 -15 26 0 3 -3 13 -6 22 -3 9 -1
16 4 16 6 0 13 -10 15 -22 3 -17 5 -14 6 10 1 29 3 32 21 22 13 -7 20 -21 20
-39z m316 -124 c-45 -29 -127 -97 -202 -169 -45 -43 -86 -78 -92 -78 -6 0 -18
13 -27 30 -20 39 -19 47 3 19 l19 -22 69 62 c38 34 78 70 89 80 21 18 68 48
120 75 35 19 48 20 21 3z m80 3 c8 -8 5 -23 -8 -50 -27 -54 -17 -102 44 -219
27 -52 45 -97 40 -100 -19 -12 -44 -182 -40 -269 l3 -87 -40 -5 c-104 -15
-140 -85 -77 -152 14 -15 23 -31 19 -34 -11 -11 -249 -5 -312 8 l-60 13 -3 40
c-11 156 -44 342 -77 441 l-36 109 12 85 c13 97 41 179 68 204 18 16 19 14 23
-66 3 -62 11 -96 29 -132 14 -27 29 -51 34 -53 6 -2 60 43 120 98 105 97 215
179 240 179 6 0 16 -5 21 -10z m74 -38 c65 -25 92 -46 143 -111 l45 -57 -33
-18 c-19 -10 -55 -45 -81 -77 l-47 -59 -38 62 c-47 76 -81 180 -73 216 5 21
31 62 38 62 1 0 21 -8 46 -18z m-585 -26 c-8 -19 -22 -77 -31 -128 -9 -51 -17
-94 -18 -96 -2 -1 -11 0 -20 4 -11 4 -15 13 -11 23 4 9 9 30 12 46 9 53 65
185 79 185 1 0 -3 -16 -11 -34z m82 -23 c-3 -10 -5 -4 -5 12 0 17 2 24 5 18 2
-7 2 -21 0 -30z m10 -75 c-3 -8 -6 -5 -6 6 -1 11 2 17 5 13 3 -3 4 -12 1 -19z
m641 -95 c-18 -15 -36 -32 -40 -38 -4 -5 -10 -7 -13 -4 -7 8 61 69 76 69 6 0
-4 -12 -23 -27z m90 -50 c32 -71 62 -165 62 -193 0 -34 -139 -210 -166 -210
-16 0 -89 44 -98 59 -4 5 16 39 42 74 27 35 52 69 55 74 6 10 -54 99 -76 115
-11 7 122 148 139 148 6 0 25 -30 42 -67z m-165 -27 c-10 -13 -20 -22 -22 -20
-4 4 29 44 36 44 2 0 -4 -11 -14 -24z m-16 -73 c18 -21 41 -49 51 -63 l19 -24
-52 -71 c-46 -61 -101 -152 -80 -133 3 3 14 -1 24 -11 9 -9 28 -25 41 -34 37
-26 12 -41 -28 -17 -45 28 -55 60 -49 160 6 94 28 230 37 230 3 0 20 -17 37
-37z m-18 -279 c-14 -17 -30 -9 -23 11 3 7 12 11 20 8 11 -4 12 -9 3 -19z m60
-23 c19 -10 21 -15 10 -22 -8 -5 -19 -9 -25 -9 -18 0 -47 27 -40 38 7 12 23
10 55 -7z m-50 -84 c1 -4 -12 -1 -29 8 -26 14 -50 42 -50 61 0 9 78 -59 79
-69z m-50 12 l42 -37 -27 -21 c-14 -11 -30 -18 -35 -15 -4 2 -27 -5 -49 -16
-57 -29 -73 -20 -25 13 22 15 35 27 30 27 -6 0 -27 -11 -46 -24 -36 -25 -59
-21 -59 10 0 13 40 49 63 57 7 2 9 7 6 11 -4 4 -21 -5 -38 -20 -39 -32 -54
-24 -20 12 50 54 97 55 158 3z m-29 -95 c0 -6 -65 -34 -77 -34 -9 1 58 39 70
40 4 0 7 -2 7 -6z m-517 -206 c4 -29 3 -48 -3 -48 -6 0 -10 10 -10 23 0 12 -3
40 -6 62 -3 27 -2 35 4 25 5 -8 12 -36 15 -62z"/>
<path d="M915 2859 c-4 -6 -5 -12 -2 -15 2 -3 7 2 10 11 7 17 1 20 -8 4z"/>
<path d="M795 2760 c3 -5 8 -10 11 -10 2 0 4 5 4 10 0 6 -5 10 -11 10 -5 0 -7
-4 -4 -10z"/>
<path d="M857 2758 c-15 -11 -12 -13 23 -13 35 0 38 2 23 13 -9 6 -20 12 -23
12 -3 0 -14 -6 -23 -12z"/>
<path d="M845 2704 c-21 -22 -3 -44 37 -44 36 0 49 27 23 46 -25 18 -40 18
-60 -2z m54 -3 c17 -11 5 -31 -19 -31 -21 0 -34 15 -25 30 8 12 25 13 44 1z"/>
<path d="M865 2690 c-3 -5 1 -10 10 -10 9 0 13 5 10 10 -3 6 -8 10 -10 10 -2
0 -7 -4 -10 -10z"/>
<path d="M745 2500 c3 -5 8 -10 11 -10 2 0 4 5 4 10 0 6 -5 10 -11 10 -5 0 -7
-4 -4 -10z"/>
<path d="M962 2377 c-1 -21 -6 -36 -11 -33 -5 3 -13 -13 -19 -37 -10 -37 -9
-40 4 -23 8 11 14 25 14 32 0 7 5 14 11 16 6 2 9 20 6 43 l-4 40 -1 -38z"/>
<path d="M821 2270 c-1 -9 4 -21 9 -26 8 -8 8 -19 0 -38 -6 -17 -6 -25 0 -21
6 3 10 13 10 21 0 8 5 14 12 14 7 0 6 6 -4 18 -9 9 -18 24 -21 32 -5 13 -6 13
-6 0z"/>
<path d="M760 2191 c0 -10 19 -25 25 -20 1 2 -3 10 -11 17 -8 7 -14 8 -14 3z"/>
<path d="M996 2778 c5 -7 13 -42 20 -78 8 -45 12 -55 13 -32 1 43 -19 122 -31
122 -5 0 -6 -6 -2 -12z"/>
<path d="M681 1881 c18 -12 126 -18 136 -8 3 4 -18 7 -48 7 -30 0 -65 3 -79 6
-20 4 -22 3 -9 -5z"/>
<path d="M1480 1796 c0 -2 7 -7 16 -10 8 -3 12 -2 9 4 -6 10 -25 14 -25 6z"/>
<path d="M1460 1770 c0 -5 5 -10 11 -10 5 0 7 5 4 10 -3 6 -8 10 -11 10 -2 0
-4 -4 -4 -10z"/>
<path d="M1270 1578 c0 -4 4 -8 9 -8 6 0 12 4 15 8 3 5 -1 9 -9 9 -8 0 -15 -4
-15 -9z"/>
<path d="M1140 1509 c0 -5 5 -7 10 -4 6 3 10 8 10 11 0 2 -4 4 -10 4 -5 0 -10
-5 -10 -11z"/>
<path d="M1090 1460 l-35 -31 43 27 c23 15 42 28 42 30 0 11 -20 1 -50 -26z"/>
<path d="M1020 2836 c0 -2 8 -10 18 -17 15 -13 16 -12 3 4 -13 16 -21 21 -21
13z"/>
<path d="M1144 1105 c0 -137 2 -195 3 -128 2 67 2 179 0 250 -1 70 -3 16 -3
-122z"/>
<path d="M1110 1339 c-1 -2 -2 -98 -4 -214 -9 -550 -11 -753 -5 -780 3 -17 9
199 13 478 4 280 5 511 2 515 -3 3 -6 3 -6 1z"/>
<path d="M850 1196 c0 -2 16 -11 35 -20 l35 -17 -1 -127 c0 -70 -4 -149 -8
-175 -5 -27 -5 -63 -1 -80 6 -24 8 -14 9 42 1 41 3 72 5 70 2 -2 6 -53 10
-114 8 -125 22 -258 37 -358 8 -51 8 -71 -1 -82 -7 -8 -9 -26 -5 -44 8 -37 -9
-48 -96 -60 -68 -9 -92 -28 -87 -71 5 -45 57 -62 173 -57 55 3 124 12 152 21
l52 17 1 147 c2 248 -4 471 -13 492 -3 8 -8 24 -10 35 -3 11 -5 -44 -6 -122 0
-79 2 -143 7 -143 4 0 9 -56 10 -125 l4 -125 -28 0 c-15 0 -35 -7 -44 -15 -15
-14 -18 -12 -35 25 -16 36 -26 44 -46 42 -20 -3 -69 508 -69 715 l0 103 -36
15 c-39 16 -44 17 -44 11z m297 -598 c-3 -8 -6 -5 -6 6 -1 11 2 17 5 13 3 -3
4 -12 1 -19z m-104 -308 c19 -46 21 -48 32 -27 7 15 20 22 40 22 29 0 30 -2
33 -51 3 -50 2 -51 -35 -67 -83 -36 -187 -46 -269 -26 -51 13 -59 22 -45 46 6
10 11 13 11 6 0 -14 54 -33 89 -32 17 1 8 5 -24 13 -60 14 -69 39 -15 44 30 3
39 -2 68 -35 31 -36 33 -37 47 -19 11 15 17 16 28 8 20 -17 27 -5 27 45 0 54
-14 83 -41 83 -17 0 -18 3 -9 20 18 34 40 23 63 -30z m-35 -12 c7 -7 12 -21
12 -32 0 -16 -3 -17 -12 -8 -22 22 -32 12 -10 -11 22 -23 29 -47 15 -47 -5 0
-18 16 -31 35 -12 19 -18 35 -12 35 5 0 10 9 10 20 0 23 10 26 28 8z m-23 -86
c-7 -7 -45 29 -45 41 0 6 11 0 25 -13 14 -13 23 -26 20 -28z m-36 9 c24 -34
26 -42 8 -35 -17 6 -51 64 -38 64 5 0 19 -13 30 -29z m195 -51 c-16 -16 -151
-40 -222 -40 -37 1 -80 7 -97 15 l-30 14 30 -7 c62 -15 218 -6 270 15 50 20
67 21 49 3z"/>
<path d="M910 636 c0 -57 -3 -124 -6 -150 -6 -40 -9 -46 -26 -40 -10 3 -30 -1
-43 -10 -24 -16 -25 -15 -45 24 -11 22 -27 40 -34 40 -18 0 -26 22 -26 71 0
21 -4 39 -8 39 -4 0 -5 -26 -1 -57 3 -34 2 -63 -4 -70 -5 -7 -7 -26 -5 -43 6
-40 -8 -49 -82 -60 -71 -10 -100 -31 -100 -71 0 -35 38 -57 110 -66 54 -6 229
21 254 40 12 10 16 52 22 235 4 122 4 222 0 222 -3 0 -6 -47 -6 -104z m-136
-168 c8 -13 18 -35 21 -50 8 -33 21 -36 30 -8 7 21 58 29 70 10 3 -5 1 -10 -6
-10 -10 0 -10 -3 -1 -12 7 -7 8 -17 1 -30 -6 -12 -6 -18 1 -18 26 0 5 -23 -37
-42 -89 -39 -313 -35 -313 6 0 22 11 25 34 12 27 -17 144 -28 152 -14 4 6 -6
22 -22 37 -18 16 -22 18 -10 4 10 -12 16 -27 14 -34 -2 -7 -13 0 -26 18 -20
29 -21 31 -4 38 12 4 26 -4 48 -31 17 -20 36 -34 41 -31 29 18 3 137 -29 137
-7 0 -2 -9 10 -20 12 -12 22 -30 22 -41 0 -19 -1 -19 -23 -3 -16 12 -22 27
-22 49 2 57 24 71 49 33z m-20 -100 c17 -24 21 -48 9 -48 -5 1 -18 16 -30 35
-16 26 -19 35 -8 35 8 0 21 -10 29 -22z m-94 -23 l23 -25 -46 0 c-30 0 -52 6
-63 18 -17 16 -16 17 17 23 19 4 37 7 40 8 3 0 16 -10 29 -24z m233 -46 c-35
-35 -275 -59 -318 -31 -19 12 -18 12 5 6 50 -15 193 -6 250 15 64 23 78 25 63
10z"/>
</g>
</svg>
