 <svg  version="1.0" xmlns="http://www.w3.org/2000/svg"  width="223.000000pt" height="300.000000pt" viewBox="0 0 223.000000 300.000000"  preserveAspectRatio="xMidYMid meet">  <g transform="translate(0.000000,300.000000) scale(0.100000,-0.100000)" fill="#e7a3e8" stroke="none"> <path d="M1156 2879 c-29 -22 -36 -75 -14 -97 10 -10 10 -15 -2 -22 -27 -17 -36 -11 -48 33 -6 23 -19 51 -28 62 -15 20 -16 19 -49 -19 -19 -21 -37 -52 -41 -70 -3 -17 -17 -44 -30 -59 -13 -16 -24 -35 -24 -43 0 -9 -11 -30 -25 -48 -14 -18 -25 -38 -25 -44 0 -6 -5 -12 -11 -14 -5 -2 -12 -23 -15 -48 -3 -24 -8 -48 -10 -52 -3 -4 0 -8 6 -8 7 0 9 -8 5 -22 -6 -17 -4 -20 9 -15 12 5 16 0 16 -17 0 -18 7 -25 30 -29 21 -5 28 -11 24 -22 -7 -16 6 -19 69 -15 33 2 38 -1 35 -16 -3 -19 -6 -21 -140 -83 -77 -35 -92 -46 -132 -100 -67 -91 -169 -297 -162 -326 3 -13 41 -59 84 -103 42 -43 89 -93 104 -110 14 -18 36 -32 48 -32 15 0 20 -5 17 -17 -16 -58 -16 -110 -2 -241 10 -80 15 -174 13 -209 l-4 -63 32 -12 c27 -9 34 -18 39 -48 3 -20 1 -56 -4 -80 -17 -74 -13 -217 11 -342 19 -106 20 -119 6 -135 -30 -35 -30 -45 5 -183 11 -44 18 -56 35 -58 12 -2 22 -10 22 -17 0 -24 55 -45 120 -45 56 0 60 1 60 23 0 13 -16 44 -35 68 -19 25 -46 80 -61 124 l-26 80 22 215 c11 118 26 252 32 298 10 81 10 82 39 82 34 0 36 -13 12 -61 -28 -56 -29 -189 -2 -335 19 -109 21 -134 11 -181 -9 -46 -9 -66 6 -124 17 -70 33 -85 52 -49 12 22 8 33 -22 66 -13 15 -18 32 -16 55 4 33 5 33 36 -33 36 -76 68 -104 108 -94 27 7 54 -7 54 -29 0 -35 -99 -18 -130 23 -14 17 -20 20 -20 9 0 -9 10 -28 23 -42 25 -29 82 -42 141 -31 48 9 47 36 0 73 -26 19 -49 54 -79 118 -51 108 -54 51 32 628 4 31 11 41 33 48 26 9 27 12 19 52 -4 23 -8 87 -9 142 0 55 -5 152 -11 215 -6 63 -11 121 -12 128 0 9 -7 8 -25 -4 -36 -23 -42 -6 -7 23 25 21 26 23 5 12 -13 -6 -32 -21 -42 -33 -14 -17 -17 -18 -18 -5 0 18 25 42 54 53 10 3 16 9 13 12 -7 8 -50 -16 -60 -32 -4 -8 -15 -14 -24 -14 -25 0 14 39 55 57 30 12 37 12 58 -2 26 -17 34 -9 8 9 -14 11 -12 18 16 63 23 38 37 50 49 46 23 -9 71 -43 71 -51 0 -4 -31 -40 -68 -80 -38 -40 -63 -72 -56 -70 20 5 224 239 230 265 4 16 -16 64 -68 163 -99 191 -127 226 -218 275 -75 41 -98 65 -62 65 12 0 27 6 34 13 7 7 21 16 31 20 9 3 17 11 17 17 0 5 7 10 16 10 8 0 12 5 9 10 -3 6 0 10 7 10 8 0 21 9 31 20 9 11 24 20 32 20 9 0 14 4 10 9 -8 14 -65 -8 -65 -25 0 -8 -9 -14 -21 -14 -11 0 -18 -4 -14 -9 3 -6 -3 -15 -14 -20 -11 -6 -25 -17 -33 -24 -18 -18 -143 -50 -173 -45 -13 3 -22 1 -19 -3 7 -12 67 -11 98 1 22 8 26 7 26 -9 0 -46 -83 -72 -159 -49 -46 14 -77 46 -53 55 31 11 7 23 -49 23 -34 0 -58 4 -55 9 4 5 -7 15 -23 22 -16 7 -27 17 -25 21 3 4 0 8 -5 8 -6 0 -11 6 -11 14 0 8 -6 17 -12 20 -45 18 140 73 214 63 22 -3 37 -2 32 3 -17 17 -113 49 -166 56 -29 4 -56 11 -59 16 -4 6 4 21 17 35 13 14 24 34 24 44 0 9 10 30 23 46 13 15 28 46 35 69 6 22 23 51 37 64 28 27 47 21 20 -7 -16 -15 -45 -73 -45 -88 0 -14 20 -2 20 13 1 9 7 28 15 42 l13 25 10 -25 c5 -14 12 -34 15 -45 4 -11 5 -4 3 15 -3 19 -8 44 -12 55 -5 15 -4 17 5 9 6 -6 15 -28 19 -50 7 -40 8 -40 39 -32 21 6 38 19 48 39 16 30 12 69 -6 69 -16 0 -22 -29 -9 -45 14 -17 8 -31 -9 -20 -16 10 -13 61 5 79 44 44 114 -2 114 -75 0 -54 -31 -82 -87 -77 -48 4 -58 -7 -15 -17 32 -7 72 6 91 28 7 9 19 13 27 10 8 -3 14 1 14 10 0 8 9 25 20 38 l21 24 -3 -47 c-2 -27 0 -48 3 -48 4 0 14 -17 23 -37 22 -53 64 -99 78 -85 8 8 3 15 -16 23 -38 18 -76 101 -76 167 0 56 -11 65 -46 36 -17 -14 -17 -15 -1 -10 11 3 16 2 12 -4 -3 -6 -13 -22 -21 -38 l-16 -27 5 29 c15 91 -65 164 -127 115z m-161 -344 l50 -13 -86 -1 c-69 -1 -88 2 -93 14 -4 12 3 15 37 14 23 0 65 -7 92 -14z m-60 -45 c-88 -24 -84 -24 -78 0 5 18 13 20 77 19 l71 0 -70 -19z m190 -245 c54 -9 101 1 126 26 15 15 24 17 44 9 14 -5 25 -14 25 -18 0 -9 -33 -55 -58 -81 -7 -7 -12 -25 -10 -39 3 -30 -18 -39 -94 -41 -47 -1 -48 0 -48 29 0 23 -6 33 -24 40 -14 5 -43 26 -65 46 -23 20 -41 32 -41 26 0 -13 53 -58 92 -78 16 -9 27 -18 25 -21 -10 -9 -90 41 -111 70 l-21 29 24 19 c23 19 23 19 52 -5 27 -23 104 -46 154 -46 25 0 31 -13 19 -44 -3 -9 -12 -16 -18 -16 -17 0 -58 45 -49 53 3 4 1 7 -5 7 -22 0 -12 -29 17 -49 39 -28 50 -27 66 12 12 28 12 33 -2 45 -9 6 -37 12 -62 12 -49 0 -131 32 -131 50 0 6 12 2 26 -9 14 -11 45 -23 69 -26z m300 -50 c36 -37 73 -95 128 -203 76 -147 78 -152 63 -179 -27 -49 -73 -96 -81 -83 -4 7 -29 22 -55 34 l-48 22 30 50 c22 34 25 44 11 31 -20 -17 -21 -17 -45 15 -39 53 -40 55 -8 86 44 45 41 68 -29 176 -13 20 -26 34 -29 31 -3 -3 11 -29 31 -57 19 -29 37 -62 38 -73 5 -35 -10 -71 -36 -85 -14 -7 -23 -15 -21 -18 3 -2 -2 -23 -10 -45 -9 -23 -18 -82 -21 -132 -9 -130 -21 -72 -22 110 -1 122 -5 163 -22 222 -12 40 -26 70 -30 67 -5 -3 7 17 27 44 45 60 59 59 129 -13z m-376 -50 c15 -4 20 -20 25 -83 4 -42 10 -94 13 -116 6 -36 5 -38 -17 -31 -15 5 -20 4 -16 -4 4 -6 14 -11 23 -11 14 0 15 -12 9 -95 -3 -52 -9 -115 -13 -140 l-6 -45 -41 7 c-24 3 -50 16 -63 30 -12 12 -31 23 -42 23 -20 0 -20 0 -1 43 27 58 25 76 -16 180 -35 88 -36 91 -20 119 10 15 14 28 9 28 -8 -1 -28 -30 -102 -153 l-35 -59 -19 26 c-10 14 -24 26 -30 26 -6 0 -1 -10 10 -22 11 -13 29 -40 41 -60 l21 -38 -22 -11 c-12 -6 -32 -21 -45 -32 l-22 -21 -29 28 c-16 15 -37 42 -46 60 l-18 33 58 109 c63 118 121 209 153 237 11 10 46 31 78 47 l58 28 43 -48 c24 -27 52 -52 62 -55z m55 -62 c3 -27 9 -114 12 -195 4 -82 10 -148 13 -148 3 0 5 34 3 75 -4 74 -3 75 25 86 42 16 63 39 63 69 0 32 -9 43 -24 31 -6 -5 -26 -6 -43 -4 -31 5 -33 8 -33 47 l0 41 50 2 c27 1 58 7 69 12 15 8 20 7 25 -5 10 -25 7 -29 -20 -31 -31 -1 -49 -17 -39 -33 5 -8 20 -10 40 -7 31 5 33 4 39 -31 3 -20 6 -80 6 -133 0 -88 -2 -97 -20 -102 -11 -3 -20 -12 -20 -21 0 -9 8 -16 20 -16 28 0 26 -31 -4 -59 -18 -17 -37 -23 -79 -24 -30 -1 -58 1 -62 4 -3 4 -3 24 1 44 6 32 10 36 31 32 13 -2 26 0 29 5 9 14 -5 40 -17 32 -8 -4 -7 -9 2 -16 10 -7 9 -8 -6 -4 -32 9 -49 -9 -54 -60 -4 -26 -12 -49 -19 -52 -11 -3 -12 6 -7 39 12 88 20 247 14 285 -14 86 -20 184 -11 184 5 0 12 -21 16 -47z m104 -118 c0 -27 -31 -55 -60 -55 -12 0 -18 8 -18 25 0 20 6 25 35 31 19 3 32 10 29 15 -3 5 -1 9 4 9 5 0 10 -11 10 -25z m-313 -72 c33 -82 35 -125 10 -178 -30 -59 -49 -53 -101 33 l-45 73 37 62 c64 106 60 106 99 10z m523 -17 c27 -39 29 -47 16 -63 -7 -10 -14 -26 -14 -36 0 -28 -50 -108 -62 -101 -18 11 8 244 27 244 2 0 17 -20 33 -44z m-605 -167 c27 -39 27 -42 10 -55 -24 -18 -14 -17 30 1 53 22 83 19 106 -12 29 -36 18 -41 -19 -9 -17 14 -39 26 -48 25 -10 0 -5 -6 14 -16 32 -16 60 -51 49 -61 -3 -4 -14 3 -23 14 -9 12 -28 27 -42 35 -18 9 -14 2 14 -24 22 -21 36 -40 33 -44 -4 -3 -20 8 -36 26 -16 17 -34 31 -41 31 -7 0 2 -14 20 -30 18 -17 30 -33 26 -37 -3 -4 -17 4 -31 17 -14 13 -25 18 -25 12 0 -7 -7 -12 -15 -12 -15 0 -21 5 -93 83 l-42 46 27 26 c38 34 53 31 86 -16z m512 -51 c-16 -6 -37 -17 -46 -24 -25 -22 -31 -16 -13 11 13 19 24 25 53 24 l36 -1 -30 -10z m-81 -43 c4 -11 -1 -15 -19 -15 -24 0 -32 10 -18 23 11 12 31 8 37 -8z m-54 -6 c0 -10 -156 -11 -182 -1 -9 4 28 8 83 9 55 1 99 -3 99 -8z m-160 -18 c19 -5 44 -12 54 -17 14 -5 17 -4 12 4 -6 9 -1 9 18 0 14 -6 26 -16 26 -21 0 -5 -7 -4 -15 3 -12 10 -19 10 -27 2 -18 -18 -51 -15 -44 3 3 8 1 15 -5 15 -6 0 -9 -8 -7 -17 5 -26 108 -27 108 -2 0 35 85 41 114 8 11 -13 25 -19 37 -16 10 3 17 1 13 -4 -3 -5 -1 -9 5 -9 5 0 13 5 16 10 16 25 31 8 30 -32 -1 -24 1 -47 4 -53 8 -14 8 -175 -1 -175 -13 0 -38 -32 -33 -41 4 -5 14 -9 24 -9 14 0 18 -9 19 -50 0 -28 4 -60 7 -70 5 -15 0 -22 -19 -30 -14 -5 -26 -17 -26 -27 0 -15 1 -15 13 1 8 10 22 16 33 14 14 -3 8 -9 -26 -25 -121 -56 -436 -62 -479 -9 -10 12 -9 13 7 9 11 -2 29 0 40 6 14 7 23 8 27 1 11 -18 25 -10 25 15 0 26 -14 33 -25 15 -5 -8 -11 -7 -21 1 -8 6 -24 9 -37 7 -21 -4 -24 -1 -23 26 1 17 7 37 14 44 16 18 15 32 -2 32 -9 0 -14 14 -14 48 -1 26 -6 71 -12 101 -7 37 -7 58 1 70 9 14 10 14 5 -1 -3 -10 -1 -18 4 -18 6 0 10 11 10 25 0 17 -4 23 -14 19 -12 -5 -14 5 -9 53 7 68 8 70 29 53 13 -12 21 -11 50 5 19 10 34 24 34 32 0 15 11 16 60 4z m305 -637 c-9 -13 -13 -29 -10 -33 3 -5 -4 -69 -14 -143 -11 -73 -25 -177 -30 -231 l-11 -98 40 -85 c22 -46 40 -89 40 -94 0 -17 -56 -11 -71 8 -35 41 -88 169 -92 222 -3 30 -13 102 -22 160 -19 116 -15 224 10 274 8 16 15 37 15 46 0 14 16 21 78 32 l77 13 3 -23 c2 -13 -4 -34 -13 -48z m-262 36 c43 0 49 -18 17 -50 -24 -24 -25 -31 -6 -24 11 4 13 -3 11 -33 -5 -51 -23 -221 -39 -361 l-12 -114 33 -96 c17 -52 30 -99 27 -104 -9 -14 -52 -9 -70 9 -22 22 -50 87 -59 136 -4 20 -11 40 -16 42 -5 3 -6 18 -3 33 3 15 -4 82 -16 147 -18 99 -21 136 -15 215 5 52 9 121 9 154 l1 58 50 -6 c28 -3 67 -6 88 -6z m-108 -657 c8 -47 37 -102 64 -127 16 -14 30 -17 61 -13 22 3 40 2 40 -1 0 -4 3 -17 6 -29 6 -21 3 -23 -30 -23 -62 0 -102 23 -116 67 -7 21 -19 45 -27 54 -17 20 -31 125 -16 116 6 -4 14 -23 18 -44z"/> <path d="M1178 1859 c-10 -5 -18 -17 -18 -24 0 -20 50 -20 76 -1 18 14 18 15 -9 25 -33 13 -28 13 -49 0z"/> <path d="M903 1504 c-8 -20 14 -35 48 -32 15 1 34 -4 43 -11 14 -12 16 -10 16 14 0 22 -4 26 -20 22 -10 -3 -24 1 -31 9 -16 19 -48 18 -56 -2z m53 -9 c18 -14 18 -14 -8 -15 -27 0 -43 12 -31 24 9 9 17 8 39 -9z"/> <path d="M1207 1489 c-10 -6 -25 -8 -33 -5 -21 8 -54 -11 -54 -30 0 -13 7 -15 33 -10 17 4 42 7 55 8 16 0 22 6 22 24 0 27 1 27 -23 13z"/> <path d="M1335 1400 c-4 -6 -15 -8 -25 -5 -25 8 -60 -11 -60 -31 0 -13 7 -15 33 -10 17 4 42 7 55 8 16 0 22 6 22 24 0 25 -14 32 -25 14z"/> <path d="M1036 1387 c-16 -12 -16 -14 -2 -26 10 -8 28 -11 46 -8 16 4 32 2 35 -3 9 -15 25 -2 25 19 0 13 -8 18 -27 18 -16 0 -35 3 -43 6 -9 4 -24 1 -34 -6z"/> <path d="M901 1311 c-26 -17 -4 -43 33 -40 19 2 38 0 42 -4 14 -13 24 -7 24 14 0 16 -5 20 -18 17 -10 -3 -27 1 -37 8 -22 16 -25 17 -44 5z"/> <path d="M1217 1294 c-4 -4 -1 -14 6 -23 9 -12 7 -11 -13 2 -30 21 -63 22 -79 3 -18 -22 13 -42 44 -28 14 6 31 9 39 6 8 -3 16 -2 19 3 7 12 -7 45 -16 37z m-27 -23 c0 -5 -11 -11 -25 -13 -17 -4 -25 -1 -25 8 0 8 11 14 25 14 14 0 25 -4 25 -9z"/> <path d="M1003 1183 c-7 -2 -13 -13 -13 -24 0 -22 29 -26 62 -8 21 11 21 12 3 25 -19 14 -31 16 -52 7z"/> <path d="M1316 1171 c-5 -7 -18 -10 -35 -6 -30 6 -68 -16 -57 -33 9 -15 53 -16 61 -2 4 6 -7 8 -27 4 -31 -5 -32 -4 -14 10 17 14 22 14 48 0 34 -17 49 -9 39 20 -6 14 -10 16 -15 7z"/> <path d="M1107 1073 c-22 -3 -41 -11 -44 -20 -12 -31 43 -37 68 -7 6 8 17 14 23 14 6 0 4 -5 -4 -10 -13 -8 -12 -10 3 -10 9 0 17 2 17 4 0 12 -13 36 -19 34 -3 -1 -23 -3 -44 -5z"/> <path d="M1250 2650 c-11 -7 -5 -10 27 -10 23 0 48 -3 57 -6 23 -9 8 -32 -18 -27 -29 6 -66 -12 -66 -32 0 -17 31 -35 61 -35 22 0 22 0 3 15 -10 8 -27 15 -38 15 -15 0 -16 3 -6 15 14 17 50 20 50 5 0 -5 7 -6 17 -3 11 4 14 3 9 -5 -4 -7 -15 -12 -24 -12 -27 -1 49 -34 93 -41 l40 -6 -40 -1 c-23 -1 -46 3 -52 9 -8 8 -19 6 -42 -5 -17 -9 -31 -18 -31 -19 0 -1 34 -1 76 1 47 3 80 0 87 -7 8 -8 8 -11 -2 -11 -7 0 -10 -4 -6 -10 10 -17 35 0 26 18 -4 10 -6 23 -4 30 3 6 -1 12 -9 12 -10 0 -9 3 2 10 29 19 -9 29 -52 14 -48 -17 -79 -9 -48 13 19 14 19 40 -1 28 -5 -4 -9 -2 -9 4 0 5 6 11 12 13 18 6 -19 25 -62 32 -19 4 -42 2 -50 -4z"/> <path d="M1057 2634 c-16 -9 -27 -18 -24 -21 3 -2 15 1 27 7 11 6 40 15 63 20 l42 8 -40 1 c-22 0 -53 -7 -68 -15z"/> <path d="M1060 2598 c0 -5 -4 -7 -9 -3 -20 11 -20 -14 -1 -28 11 -7 17 -17 14 -20 -12 -12 48 -19 72 -8 27 12 31 33 10 50 -17 14 -86 21 -86 9z m60 -18 c0 -5 6 -7 13 -4 8 3 14 -1 14 -9 0 -9 -10 -12 -31 -9 -46 5 -58 11 -51 22 8 13 55 13 55 0z"/> <path d="M1233 2568 c5 -35 -23 -38 -47 -5 -15 19 -16 20 -10 2 4 -11 6 -28 6 -38 0 -10 6 -21 14 -24 49 -19 -25 -68 -92 -60 -46 5 -52 -7 -8 -16 35 -6 87 9 108 32 16 18 18 18 56 -1 27 -14 49 -18 70 -13 50 11 42 22 -13 17 -66 -5 -101 15 -76 45 13 16 14 23 2 53 -11 30 -13 31 -10 8z"/> </g> </svg> 