<?xml version="1.0" standalone="no"?>
<!DOCTYPE svg PUBLIC "-//W3C//DTD SVG 20010904//EN"
 "http://www.w3.org/TR/2001/REC-SVG-20010904/DTD/svg10.dtd">
<svg version="1.0" xmlns="http://www.w3.org/2000/svg"
 width="300.000000pt" height="804.000000pt" viewBox="0 0 300.000000 804.000000"
 preserveAspectRatio="xMidYMid meet">
<metadata>
Created by potrace 1.10, written by Peter Selinger 2001-2011
</metadata>
<g transform="translate(0.000000,804.000000) scale(0.100000,-0.100000)"
fill="#d4222f" stroke="none">
<path d="M1445 7683 c-143 -4 -349 -25 -389 -39 -61 -22 -161 -99 -202 -156
-21 -29 -53 -69 -72 -88 -18 -19 -40 -50 -48 -68 -17 -41 -27 -152 -14 -152 5
0 0 -19 -10 -43 -12 -27 -25 -96 -34 -188 -8 -79 -22 -178 -30 -219 -39 -196
-1 -466 87 -624 23 -41 23 -42 5 -71 -67 -106 -98 -195 -100 -282 0 -39 -6
-50 -52 -96 -72 -73 -129 -188 -160 -323 -46 -196 -57 -318 -67 -734 -9 -407
-3 -657 26 -965 9 -100 11 -165 5 -195 -14 -70 -12 -129 11 -266 21 -131 43
-203 63 -206 6 0 16 -2 21 -2 6 -1 20 -7 32 -14 29 -16 50 -15 56 2 4 9 14 12
27 9 18 -5 19 -10 13 -42 -12 -54 -7 -757 7 -901 21 -232 112 -745 168 -942
l19 -67 -26 -24 c-25 -23 -115 -57 -151 -57 -10 0 -38 -18 -61 -40 -40 -38
-43 -44 -43 -93 0 -97 80 -166 195 -167 40 0 96 14 205 49 82 28 187 58 234
69 47 10 99 25 115 33 55 26 59 93 9 143 -25 25 -26 27 -10 45 15 17 16 35 6
207 -23 406 -29 611 -29 929 0 181 1 344 3 360 1 17 4 54 4 83 2 59 22 64 22
6 0 -44 30 -262 75 -539 32 -196 55 -295 135 -570 42 -145 177 -555 191 -578
12 -22 14 -20 -31 -37 -19 -7 -64 -41 -100 -75 -36 -35 -96 -80 -133 -101 -48
-28 -70 -46 -74 -64 -3 -14 -11 -32 -18 -40 -25 -29 -25 -55 -3 -100 28 -55
70 -84 160 -111 111 -34 189 -14 323 82 81 58 115 79 195 123 146 80 203 139
204 213 1 32 7 54 19 66 15 15 18 29 14 60 -3 23 -10 79 -15 124 -6 46 -13 87
-16 92 -17 27 -103 455 -141 701 -19 117 -38 603 -34 840 3 167 7 199 22 221
13 19 24 25 38 22 27 -7 64 29 91 87 32 71 78 248 85 328 4 47 10 72 18 72 11
0 29 52 41 120 3 14 9 41 14 60 5 19 11 49 14 65 10 59 27 170 31 195 17 125
25 195 29 250 3 36 8 97 12 137 19 227 20 292 8 493 -27 444 -59 646 -136 857
-41 113 -115 201 -158 188 -8 -2 -33 11 -54 31 l-39 35 -1 102 c-1 92 -4 107
-30 157 -59 112 -181 190 -371 237 -58 15 -105 31 -105 37 0 6 16 51 36 101
l35 90 46 0 c41 0 49 4 84 44 22 24 53 71 69 105 33 67 38 112 22 206 -6 30
-6 62 -2 70 4 8 13 42 19 74 13 69 2 156 -31 256 -12 36 -21 71 -19 79 12 60
-34 154 -123 249 -66 71 -94 80 -231 75z m138 -24 c7 0 -4 -6 -24 -14 -87 -32
-332 -215 -288 -215 9 0 26 12 40 26 36 39 227 165 267 176 31 9 37 7 68 -23
l34 -32 -50 -18 c-84 -30 -266 -166 -247 -186 4 -4 26 11 50 34 74 71 195 143
241 143 37 0 97 -87 103 -148 l4 -47 -51 54 c-28 29 -54 66 -57 82 -6 32 -23
40 -23 12 0 -23 22 -55 86 -131 71 -82 88 -138 89 -277 0 -154 -5 -161 -59
-89 -114 154 -361 330 -546 390 -76 25 -100 28 -232 28 -82 1 -148 4 -148 7 0
15 74 98 118 131 71 55 113 69 242 84 148 17 223 18 195 2 -56 -30 -184 -121
-210 -148 -42 -43 -21 -50 23 -7 33 32 149 113 213 148 25 14 115 29 137 23 8
-2 19 -4 25 -5z m-445 -264 c93 -19 159 -46 272 -110 119 -67 267 -194 342
-292 56 -73 75 -119 44 -107 -8 3 -12 12 -9 20 3 8 0 14 -6 14 -6 0 -11 -6
-11 -14 0 -7 -14 -16 -32 -20 -28 -5 -35 -2 -61 31 -160 202 -394 329 -655
355 -84 8 -141 9 -202 1 -47 -5 -86 -9 -88 -7 -11 8 54 116 76 129 36 19 238
20 330 0z m-74 -150 c38 -3 98 -16 135 -27 72 -22 191 -77 191 -88 0 -4 -9
-15 -20 -25 -19 -17 -20 -17 -29 6 -8 21 -10 22 -16 7 -10 -25 -24 -22 -35 8
-9 22 -13 24 -26 13 -13 -10 -16 -9 -20 9 -5 18 -9 19 -31 9 -19 -8 -26 -8
-33 3 -6 10 -14 7 -34 -16 -25 -28 -25 -29 -26 -6 0 13 -4 20 -10 17 -5 -3
-10 -13 -10 -22 0 -19 -38 -73 -51 -73 -7 0 -8 12 -4 30 4 17 2 30 -3 30 -5 0
-13 -16 -16 -35 -5 -23 -13 -35 -23 -35 -13 0 -15 9 -9 56 4 36 3 53 -4 49 -5
-3 -10 -13 -10 -21 0 -8 -5 -14 -11 -14 -7 0 -8 11 -4 32 l7 32 -33 -29 c-34
-28 -34 -28 -37 -6 -2 12 2 29 9 37 18 22 2 30 -20 10 -21 -19 -51 -12 -32 7
6 6 11 17 11 25 0 10 -9 8 -34 -8 l-35 -21 -3 22 -3 21 -28 -22 c-33 -26 -43
-23 -22 8 10 13 28 22 53 24 54 4 186 1 266 -7z m-284 -55 c0 -14 33 -13 48 2
9 9 12 7 12 -11 0 -18 4 -22 20 -18 17 4 19 1 14 -19 -7 -29 19 -43 47 -25 15
9 19 8 19 -4 0 -8 7 -15 15 -15 11 0 15 -11 15 -35 0 -38 22 -57 43 -36 6 6
23 11 39 11 20 0 31 8 43 30 9 17 22 30 30 30 7 0 20 8 27 18 15 20 66 22 78
3 4 -8 15 -11 23 -8 10 4 17 -2 20 -15 5 -16 12 -19 31 -16 14 3 26 1 26 -3 0
-20 40 -7 62 19 l24 29 51 -33 c51 -33 52 -33 40 -65 -9 -25 -9 -33 1 -36 6
-3 12 -13 12 -24 0 -10 6 -19 14 -19 21 0 25 -21 10 -52 -12 -23 -12 -29 2
-42 11 -12 12 -20 5 -35 -15 -27 -5 -48 32 -66 40 -20 43 -19 56 13 26 60 78
102 129 102 60 0 72 -66 32 -169 -47 -118 -149 -199 -180 -141 -15 28 -25 25
-26 -8 -1 -15 -18 -65 -38 -112 l-38 -85 -5 -252 c-4 -181 -2 -253 6 -253 6 0
11 16 11 35 0 43 11 44 44 5 49 -59 41 -157 -19 -236 -30 -39 -185 -143 -300
-203 -44 -22 -93 -52 -108 -67 -16 -14 -29 -24 -31 -23 -21 31 -138 223 -152
249 -25 49 -24 133 2 190 l21 45 12 -42 c6 -24 16 -43 21 -43 14 0 12 15 -3
53 -8 18 -17 59 -21 93 l-7 61 100 11 c55 7 124 21 153 32 29 11 54 20 54 20
1 0 4 -13 8 -30 3 -16 10 -30 16 -30 12 0 5 38 -9 53 -4 4 22 38 58 76 66 68
142 182 140 211 0 11 -3 11 -12 -4 -155 -248 -201 -282 -423 -311 -204 -27
-260 -2 -335 147 -72 143 -104 366 -80 553 7 49 14 91 16 93 2 3 16 -5 31 -17
30 -23 88 -28 128 -10 13 6 32 26 42 44 15 29 16 37 4 65 -19 46 -51 64 -108
57 -26 -2 -55 -8 -64 -12 -15 -6 -18 -2 -18 24 0 43 42 67 131 76 43 4 67 11
63 17 -9 14 -120 1 -157 -18 l-29 -16 7 44 c12 73 75 198 75 148z m881 -284
l29 -40 -23 -25 c-13 -14 -31 -37 -40 -51 -10 -13 -17 -19 -17 -12 0 9 -7 11
-21 7 -20 -7 -22 -5 -16 26 3 19 9 43 13 53 6 16 4 18 -9 13 -22 -8 -22 11 -1
42 12 17 14 25 5 30 -7 4 -9 16 -5 27 6 16 5 17 -7 7 -20 -19 -32 -16 -26 7 3
13 0 20 -9 20 -8 0 -11 6 -7 16 4 12 16 5 56 -33 27 -26 62 -66 78 -87z m-808
-28 c18 -24 18 -30 7 -58 -16 -38 -37 -50 -86 -50 -46 0 -84 32 -84 69 0 49
34 72 99 68 35 -1 48 -8 64 -29z m878 -626 c140 -49 227 -119 276 -220 23 -49
25 -63 21 -145 -5 -98 -22 -144 -91 -247 -141 -210 -225 -271 -627 -457 -47
-22 -103 -52 -124 -66 -29 -20 -42 -24 -52 -16 -19 16 17 71 105 157 66 65 91
81 240 155 139 69 176 92 236 148 122 116 225 320 210 418 -11 71 -40 117
-106 166 -69 51 -146 82 -224 91 -52 6 -55 8 -55 34 l0 28 68 -14 c37 -7 92
-21 123 -32z m-56 -55 c80 -24 178 -93 209 -146 13 -23 20 -53 20 -95 0 -51
-6 -75 -41 -148 -22 -47 -55 -106 -71 -130 -33 -48 -139 -158 -153 -158 -4 0
1 20 12 44 11 25 27 97 36 161 15 107 15 122 0 183 -21 90 -35 124 -47 117 -6
-4 -4 -17 5 -35 22 -42 18 -54 -7 -30 -13 12 -43 30 -67 41 l-43 19 4 96 c5
125 2 124 143 81z m-866 -187 l34 -29 -28 -58 c-22 -44 -30 -77 -33 -135 -6
-117 23 -191 178 -453 73 -122 126 -221 119 -224 -6 -2 -25 10 -42 26 -18 17
-73 62 -124 102 -103 80 -135 116 -186 211 -65 121 -86 298 -48 420 18 57 78
171 91 170 3 -1 20 -14 39 -30z m847 -100 c25 -37 26 -46 21 -109 -12 -145
-90 -233 -324 -368 -85 -48 -176 -105 -203 -125 l-49 -37 -102 170 c-110 184
-128 223 -129 284 0 47 40 131 81 171 l29 28 0 -26 c0 -15 -12 -50 -27 -80
-20 -40 -27 -68 -28 -113 0 -70 14 -101 120 -268 l68 -106 33 28 c17 16 76 52
130 81 195 105 285 174 321 247 46 95 31 194 -36 238 -22 14 -31 28 -31 48 l0
27 50 -25 c31 -16 60 -40 76 -65z m-727 58 c23 -1 41 -5 41 -11 0 -5 -20 -32
-45 -60 -53 -61 -82 -118 -98 -196 -9 -47 -12 -52 -18 -31 -15 52 -9 159 10
211 24 62 49 101 61 94 4 -3 27 -6 49 -7z m1155 -227 c18 -19 18 -21 -1 -48
-22 -31 -57 -114 -67 -155 -25 -107 -31 -386 -22 -1073 3 -213 -1 -367 -19
-793 l-7 -164 -73 -47 c-84 -55 -129 -75 -149 -68 -24 9 -103 116 -136 183
-34 71 -75 220 -85 317 -4 37 -8 67 -9 67 0 0 -26 -7 -56 -15 -37 -10 -104
-15 -203 -15 l-148 0 5 483 c9 688 4 623 48 661 38 33 116 75 332 176 156 73
244 130 326 212 64 64 150 186 191 270 24 50 35 52 73 9z m-1219 -85 c14 -55
211 -396 232 -403 5 -2 29 12 54 32 24 20 113 75 198 123 162 91 268 176 291
232 7 17 16 30 21 30 5 0 -3 -30 -17 -67 -14 -38 -28 -76 -31 -86 -3 -10 -58
-43 -137 -81 -72 -36 -154 -82 -181 -103 -64 -48 -162 -155 -176 -190 -10 -27
-11 -26 -48 42 -21 39 -70 123 -110 189 -117 193 -129 221 -123 289 2 32 6 56
8 54 3 -2 11 -30 19 -61z m1359 -4 c49 -72 113 -271 141 -443 46 -284 62 -749
37 -1054 -13 -150 -61 -508 -82 -600 -5 -22 -11 -52 -14 -67 -10 -48 -112 -63
-217 -32 -57 17 -112 50 -105 63 19 30 32 912 23 1481 -3 180 8 407 24 500 14
80 59 182 89 203 20 14 26 14 50 2 14 -7 39 -31 54 -53z m-1583 -170 c-40
-149 -78 -880 -67 -1302 5 -207 20 -436 38 -565 3 -18 -2 -20 -65 -18 -82 3
-145 19 -143 36 1 11 -20 358 -29 477 -8 111 14 855 30 980 33 270 90 438 184
542 l46 52 13 -63 c13 -57 12 -69 -7 -139z m104 -102 c36 -55 75 -93 185 -181
155 -124 153 -122 116 -212 -9 -20 -19 -64 -23 -97 -5 -52 -4 -60 11 -60 9 0
16 -6 17 -12 3 -35 -3 -883 -6 -887 -2 -2 -44 3 -92 12 -80 13 -89 13 -100 -1
-7 -9 -13 -27 -13 -40 0 -111 -127 -362 -183 -362 -16 0 -27 62 -49 280 -31
324 -3 1406 43 1620 19 86 21 89 35 47 8 -21 34 -70 59 -107z m385 -299 c-1
-17 -18 -31 -33 -25 -20 7 -21 16 -6 31 11 11 39 7 39 -6z m-20 -103 c0 -35
-3 -79 -6 -98 -5 -32 -9 -35 -37 -34 -29 1 -32 4 -29 30 3 32 29 119 44 147
17 33 28 16 28 -45z m-20 -173 c0 -14 -4 -25 -10 -25 -5 0 -10 11 -10 25 0 14
5 25 10 25 6 0 10 -11 10 -25z m0 -80 c0 -19 -4 -35 -10 -35 -5 0 -10 16 -10
35 0 19 5 35 10 35 6 0 10 -16 10 -35z m0 -85 c0 -22 -4 -40 -10 -40 -5 0 -10
18 -10 40 0 22 5 40 10 40 6 0 10 -18 10 -40z m0 -90 c0 -22 -4 -40 -10 -40
-5 0 -10 18 -10 40 0 22 5 40 10 40 6 0 10 -18 10 -40z m0 -95 c0 -25 -4 -45
-10 -45 -5 0 -10 20 -10 45 0 25 5 45 10 45 6 0 10 -20 10 -45z m0 -100 c0
-25 -4 -45 -10 -45 -5 0 -10 20 -10 45 0 25 5 45 10 45 6 0 10 -20 10 -45z m0
-85 c0 -16 0 -33 1 -37 0 -4 -4 -9 -10 -11 -7 -2 -11 12 -11 37 0 23 5 41 10
41 6 0 10 -13 10 -30z m0 -100 c0 -22 -4 -40 -10 -40 -5 0 -10 18 -10 40 0 22
5 40 10 40 6 0 10 -18 10 -40z m0 -90 c0 -22 -4 -40 -10 -40 -5 0 -10 18 -10
40 0 22 5 40 10 40 6 0 10 -18 10 -40z m0 -101 c0 -24 -4 -38 -10 -34 -5 3
-10 22 -10 41 0 19 5 34 10 34 6 0 10 -18 10 -41z m-192 -47 c10 -7 10 -22 -3
-80 -31 -150 -74 -248 -142 -323 -40 -44 -68 -56 -88 -39 -21 18 -19 27 9 34
53 13 154 197 176 321 18 104 19 105 48 87z m661 -290 c17 -56 82 -164 128
-213 24 -25 43 -49 43 -53 0 -3 -15 -6 -34 -6 -28 0 -42 9 -80 51 -85 94 -125
190 -160 378 -21 110 -21 116 12 127 l27 10 27 -131 c14 -71 31 -145 37 -163z
m-556 271 c26 -3 47 -6 47 -7 1 -1 3 -95 5 -211 3 -115 7 -245 10 -287 l5 -78
-28 0 c-78 0 -273 65 -331 109 l-24 19 29 15 c89 47 183 233 201 399 5 49 9
58 22 53 9 -4 37 -9 64 -12z m89 -24 c4 -39 -2 -55 -16 -42 -9 10 -7 83 3 83
5 0 11 -18 13 -41z m338 -56 c27 -191 85 -336 170 -423 28 -29 49 -54 47 -56
-9 -10 -171 -23 -334 -28 l-181 -6 -4 58 c-2 31 -5 134 -6 227 -1 94 -5 200
-8 237 l-7 67 149 4 c82 1 152 4 155 5 4 1 12 -37 19 -85z m-330 -43 c0 -29
-4 -40 -15 -40 -11 0 -15 11 -15 40 0 29 4 40 15 40 11 0 15 -11 15 -40z m0
-85 c0 -24 -5 -35 -15 -35 -10 0 -15 11 -15 35 0 24 5 35 15 35 10 0 15 -11
15 -35z m0 -91 c0 -45 -22 -41 -27 4 -3 24 0 32 11 32 12 0 16 -10 16 -36z
m-561 -40 c73 -3 75 -4 88 -35 l13 -32 -73 6 c-41 3 -92 11 -115 18 -36 10
-42 16 -42 40 0 27 1 28 28 18 15 -6 60 -12 101 -15z m563 -44 c5 -51 -18 -55
-24 -5 -2 20 -2 38 1 40 12 13 19 2 23 -35z m-541 -37 l91 -6 -6 -31 c-2 -17
-8 -75 -12 -129 -3 -53 -10 -100 -15 -103 -5 -3 -6 -59 -2 -125 4 -83 3 -119
-5 -119 -6 0 -14 5 -17 11 -16 25 -34 131 -34 197 0 40 -2 80 -5 90 -4 11 3
39 14 63 21 46 26 89 11 89 -11 0 -21 -25 -21 -54 0 -12 -6 -31 -14 -42 -11
-14 -13 -37 -9 -95 4 -47 2 -79 -4 -82 -28 -17 -64 86 -70 201 -3 50 -10 92
-14 92 -15 0 -10 -129 7 -194 22 -83 43 -249 34 -260 -14 -15 -29 4 -44 57
-36 127 -50 291 -35 391 12 73 15 79 40 65 11 -6 61 -13 110 -16z m1406 -53
c-2 -33 -8 -55 -21 -67 -18 -17 -18 -17 -7 4 6 12 11 36 11 54 0 31 0 32 -20
14 -16 -15 -20 -31 -20 -89 0 -58 -5 -79 -25 -111 -51 -83 -59 -105 -47 -117
6 -6 8 -17 3 -27 -9 -17 -18 -74 -26 -161 -3 -30 -7 -66 -10 -80 -5 -26 -4
-490 2 -615 1 -38 5 -122 7 -185 2 -63 7 -133 10 -155 17 -123 27 -199 31
-237 2 -24 5 -44 6 -45 4 -6 10 -43 25 -148 2 -16 9 -52 14 -80 5 -27 23 -126
40 -220 27 -148 50 -245 75 -307 6 -16 0 -18 -59 -18 -69 0 -144 20 -188 51
-35 25 -57 25 -34 0 29 -31 125 -63 213 -68 75 -5 82 -7 86 -29 6 -32 2 -34
-56 -34 -90 0 -243 48 -269 85 -9 12 -130 374 -183 550 -58 188 -125 443 -135
515 -6 36 -17 108 -25 160 -50 317 -105 767 -105 859 l0 40 34 -6 c40 -6 106
4 106 16 0 5 -30 6 -67 4 -74 -5 -145 17 -190 59 -19 18 -23 19 -23 5 0 -18
45 -53 90 -68 21 -8 30 -17 30 -32 0 -12 5 -71 11 -132 8 -90 7 -136 -7 -255
-14 -124 -16 -211 -11 -630 3 -267 13 -588 21 -714 11 -155 12 -233 6 -242 -6
-6 -42 -22 -81 -34 -58 -19 -82 -22 -141 -16 -95 9 -190 53 -211 98 -19 41
-82 313 -107 462 -11 61 -28 163 -39 227 -54 313 -68 692 -45 1204 18 417 25
525 30 525 2 0 25 -15 51 -34 56 -40 97 -57 213 -88 77 -21 106 -23 315 -22
264 0 373 13 488 55 45 17 89 32 98 35 13 5 15 -7 11 -85 -3 -56 0 -91 5 -91
12 0 23 71 23 150 0 56 1 58 34 74 18 8 39 22 46 31 7 8 14 15 15 15 2 0 3
-22 2 -50z m55 21 c63 -37 200 -51 260 -26 13 5 15 2 11 -15 -17 -66 -161 -76
-275 -18 -31 15 -38 24 -38 48 0 35 0 35 42 11z m-918 -7 c3 -9 6 -27 6 -41 0
-39 -25 -22 -28 20 -3 37 11 50 22 21z m917 -78 c58 -24 155 -38 194 -27 42
11 42 9 21 -116 -25 -139 -71 -270 -108 -310 -38 -41 -53 -22 -20 25 17 24 82
172 82 186 0 3 -4 6 -9 6 -4 0 -16 -21 -26 -47 -25 -69 -83 -174 -113 -205
-46 -49 -59 -29 -17 26 24 31 94 176 110 225 5 16 3 22 -4 20 -7 -3 -27 -41
-44 -85 -51 -124 -121 -225 -146 -209 -16 9 -13 31 5 45 38 32 145 270 121
270 -7 0 -26 -38 -44 -85 -35 -93 -90 -185 -111 -185 -20 0 -9 52 28 139 41
96 83 231 74 239 -4 4 -9 1 -11 -6 -11 -29 -98 -135 -120 -145 -30 -13 -41 -2
-23 26 12 19 43 77 106 200 17 32 13 31 55 13z m-911 -26 c0 -20 -5 -30 -15
-30 -15 0 -21 40 -8 53 14 15 23 6 23 -23z m843 -220 c-27 -71 -28 -72 -34
-39 -5 32 -6 33 -12 9 -3 -14 -9 -50 -14 -80 -12 -80 -7 -994 6 -1135 23 -244
133 -876 177 -1015 14 -45 24 -83 22 -85 -2 -2 -11 -5 -22 -7 -14 -2 -19 4
-22 27 -2 16 -7 39 -13 50 -24 51 -67 261 -130 635 -64 376 -76 539 -80 1060
-1 223 3 340 14 434 8 71 16 130 18 131 1 0 16 5 32 11 17 5 40 26 54 47 13
20 26 35 28 33 2 -2 -9 -36 -24 -76z m-1438 10 c4 -6 10 -8 15 -5 8 5 30 -101
30 -148 0 -16 -6 -27 -14 -27 -22 0 -33 22 -35 67 0 24 -5 61 -10 83 -8 37 -1
54 14 30z m1400 -271 c-4 -5 5 -14 18 -20 l24 -11 7 -421 c4 -266 12 -472 22
-557 20 -179 105 -679 145 -855 46 -207 45 -193 14 -205 -36 -13 -37 -13 -23
9 9 15 8 31 -5 77 -40 149 -133 668 -162 914 -18 153 -33 506 -35 820 0 123
-5 219 -10 224 -13 13 -13 49 0 41 6 -4 8 -11 5 -16z m96 -284 c-3 -350 13
-691 39 -830 11 -60 30 -164 41 -230 11 -66 39 -199 61 -295 22 -96 43 -202
48 -235 5 -33 12 -78 16 -100 5 -32 2 -44 -13 -57 -18 -17 -19 -16 -20 20 0
20 -5 55 -11 77 -41 162 -143 741 -166 945 -5 46 -13 306 -21 711 -2 124 -7
233 -11 243 -5 14 -2 17 16 14 l24 -3 -3 -260z m-1171 -1604 c0 -5 -6 -11 -13
-14 -14 -5 -107 -129 -107 -142 0 -3 10 0 23 7 15 9 68 13 167 13 129 0 152
-3 208 -24 36 -14 67 -20 70 -15 4 5 20 16 36 24 18 9 34 28 41 49 l11 34 13
-31 c15 -36 7 -68 -20 -82 -10 -6 -67 -21 -126 -35 -60 -13 -160 -42 -223 -65
-146 -53 -228 -62 -288 -31 -69 35 -102 107 -77 167 8 19 17 34 20 34 3 0 4
-4 1 -9 -4 -5 -1 -22 6 -38 6 -15 12 -30 13 -33 1 -3 7 -24 14 -47 9 -32 18
-44 36 -49 49 -12 214 15 312 52 53 20 106 34 119 31 41 -7 26 12 -17 23 -25
7 -106 10 -205 8 -90 -2 -164 -1 -164 1 0 14 67 121 93 149 30 31 57 42 57 23z
m43 -25 c33 -22 134 -46 193 -46 45 0 104 13 157 35 14 6 17 2 17 -27 0 -77
-54 -100 -158 -68 -69 21 -221 29 -298 14 l-38 -7 48 57 c27 31 50 56 53 56 2
0 14 -7 26 -14z m-143 -22 c0 -3 -11 -20 -24 -37 -14 -18 -28 -44 -31 -60 -8
-29 -51 -70 -66 -62 -12 8 1 35 16 35 8 0 17 5 20 11 12 19 -3 21 -29 4 -24
-16 -26 -16 -26 -1 0 10 11 19 30 23 17 3 30 10 30 15 0 10 -17 8 -52 -7 -11
-4 -18 -3 -18 4 0 6 14 14 30 18 17 3 30 9 30 14 0 11 -3 11 -34 -1 -17 -6
-26 -6 -26 0 0 5 12 12 28 15 15 3 45 12 67 19 48 16 55 18 55 10z m1008 -133
c65 -32 184 -54 264 -49 40 3 81 9 92 13 17 8 17 6 2 -22 -22 -44 -72 -65
-122 -52 -61 17 -266 5 -342 -20 -34 -11 -72 -25 -82 -31 -11 -6 -20 -7 -20
-3 0 9 158 183 166 183 3 0 21 -8 42 -19z m-127 -40 c-48 -47 -115 -140 -107
-149 2 -2 48 11 103 29 113 36 270 50 362 30 48 -10 57 -9 92 11 25 14 45 35
56 59 15 35 47 57 58 39 3 -4 2 -23 -2 -41 -9 -48 -73 -105 -198 -178 -61 -35
-146 -89 -190 -121 -100 -71 -148 -90 -228 -90 -79 0 -151 25 -199 71 -38 36
-48 72 -32 114 6 15 8 15 25 -1 11 -10 29 -15 48 -12 21 3 28 1 24 -9 -5 -13
54 -83 71 -83 5 0 14 -7 20 -15 7 -9 30 -16 61 -17 42 -1 58 4 101 33 29 19
89 57 136 86 46 29 92 61 103 71 11 10 29 21 39 25 15 6 17 10 7 20 -7 7 -52
13 -119 15 -114 4 -217 -15 -318 -58 -26 -11 -49 -18 -52 -15 -12 12 71 155
113 194 64 59 88 53 26 -8z m-611 31 c0 -5 -44 -23 -97 -40 -120 -39 -275 -50
-281 -20 -7 37 40 51 206 58 86 4 160 8 165 8 4 1 7 -2 7 -6z m465 -175 c-24
-56 -47 -77 -84 -77 -29 0 -38 38 -13 62 19 20 115 78 120 73 1 -1 -9 -27 -23
-58z m456 -1 c-7 -8 -55 -41 -107 -73 -52 -32 -109 -68 -127 -80 -52 -37 -96
-57 -104 -49 -5 4 2 16 15 26 25 21 28 30 8 30 -8 0 -23 -11 -34 -25 -11 -14
-25 -25 -30 -25 -24 0 -22 24 4 51 19 20 23 29 13 29 -9 0 -25 -11 -37 -25
-23 -26 -42 -26 -42 0 0 7 12 22 27 33 16 11 25 24 20 28 -4 4 -20 -5 -35 -19
-31 -29 -52 -35 -52 -14 0 24 35 46 119 77 102 37 159 47 280 49 80 1 92 -1
82 -13z"/>
<path d="M1155 7581 c-68 -45 -132 -107 -121 -118 4 -4 22 9 41 29 18 21 58
53 88 72 54 35 77 56 60 56 -4 0 -35 -18 -68 -39z"/>
<path d="M1020 7568 c-53 -37 -116 -106 -105 -116 4 -4 23 12 44 34 20 23 55
54 79 69 23 15 42 32 42 36 0 15 -13 10 -60 -23z"/>
<path d="M1700 7493 c1 -13 40 -56 46 -50 7 7 -25 57 -37 57 -5 0 -9 -3 -9 -7z"/>
<path d="M1570 7384 c-75 -52 -100 -74 -83 -74 15 0 163 102 163 113 0 14 -15
6 -80 -39z"/>
<path d="M1632 7316 c-78 -66 -82 -89 -4 -33 56 41 85 72 81 85 -2 4 -37 -19
-77 -52z"/>
<path d="M1681 7243 c-24 -23 -41 -46 -38 -49 7 -7 61 36 89 72 32 40 -2 25
-51 -23z"/>
<path d="M1770 7210 c-7 -14 -26 -40 -43 -57 -33 -35 -30 -58 3 -28 29 26 62
83 58 97 -3 8 -10 3 -18 -12z"/>
<path d="M1781 7080 c-15 -29 -17 -40 -8 -40 16 0 50 67 38 75 -5 3 -18 -13
-30 -35z"/>
<path d="M892 7379 c-16 -40 -18 -57 -8 -61 11 -3 29 58 23 75 -3 7 -9 0 -15
-14z"/>
<path d="M804 7355 c-16 -40 -18 -55 -5 -55 5 0 12 13 16 30 4 16 11 32 16 35
12 8 11 25 -2 25 -5 0 -17 -16 -25 -35z"/>
<path d="M981 7359 c-13 -38 -14 -59 -2 -59 5 0 11 12 14 28 3 15 9 35 12 45
4 9 3 17 -3 17 -6 0 -15 -14 -21 -31z"/>
<path d="M1096 7369 c-12 -40 -15 -68 -7 -74 14 -8 33 67 21 79 -6 6 -11 4
-14 -5z"/>
<path d="M1200 7326 c-13 -34 -13 -56 0 -56 10 0 25 68 16 77 -3 3 -10 -6 -16
-21z"/>
<path d="M1311 7273 c-11 -38 -9 -49 7 -39 12 7 21 65 11 72 -4 2 -13 -12 -18
-33z"/>
<path d="M1406 7236 c-3 -13 -9 -31 -12 -40 -3 -9 -2 -16 4 -16 9 0 32 51 32
71 0 19 -18 7 -24 -15z"/>
<path d="M1496 7176 c-19 -45 -19 -46 -7 -46 12 0 34 56 28 72 -2 7 -12 -4
-21 -26z"/>
<path d="M1569 7114 c-5 -15 -12 -30 -14 -35 -3 -4 -1 -10 5 -14 5 -3 16 11
25 31 18 43 18 44 5 44 -6 0 -15 -12 -21 -26z"/>
<path d="M1655 7041 c-3 -17 -11 -33 -16 -36 -12 -8 -11 -25 2 -25 15 0 42 71
31 82 -7 7 -12 -1 -17 -21z"/>
<path d="M1709 6963 c-7 -16 -15 -31 -17 -35 -2 -5 1 -8 7 -8 9 0 41 50 41 65
0 15 -18 2 -31 -22z"/>
<path d="M1138 7004 c-18 -18 -5 -24 50 -24 43 0 72 -7 108 -25 57 -29 54 -28
54 -14 0 27 -191 85 -212 63z"/>
<path d="M1173 6876 c-60 -27 -68 -92 -18 -142 20 -20 34 -24 80 -24 95 0 142
43 119 108 -21 57 -115 88 -181 58z m143 -37 c31 -29 32 -72 2 -93 -29 -20
-117 -21 -145 -1 -45 32 -33 107 19 118 44 10 100 -1 124 -24z"/>
<path d="M1215 6810 c-8 -26 7 -45 30 -36 21 8 16 50 -7 54 -10 2 -19 -5 -23
-18z"/>
<path d="M948 6862 c-25 -28 -50 -82 -79 -171 -19 -61 -33 -87 -47 -92 -63
-24 -41 -99 29 -99 10 0 19 -6 19 -14 0 -38 65 -61 89 -32 8 10 23 13 47 9 59
-10 87 43 44 82 -25 23 -39 12 -17 -13 36 -40 5 -76 -39 -47 -30 19 -31 19
-37 -5 -9 -33 -53 -26 -66 10 -7 22 -16 30 -35 30 -13 0 -32 7 -41 16 -15 15
-15 18 1 35 9 11 25 19 36 19 12 0 18 7 18 24 0 39 60 194 86 226 26 30 17 52
-8 22z"/>
<path d="M1702 6791 c-56 -54 -75 -138 -38 -163 16 -11 20 -10 44 12 39 36 21
91 -23 74 -8 -4 -15 -1 -15 5 0 14 77 91 91 91 5 0 7 5 4 10 -10 17 -21 12
-63 -29z m8 -110 c0 -10 -7 -24 -16 -32 -13 -10 -17 -10 -25 2 -13 20 -11 27
9 38 25 15 32 13 32 -8z"/>
<path d="M1540 6664 c0 -27 4 -43 10 -39 6 3 10 24 10 46 0 21 -4 39 -10 39
-5 0 -10 -21 -10 -46z"/>
<path d="M1432 6630 c2 -19 8 -34 13 -33 17 3 17 27 0 48 -15 19 -15 18 -13
-15z"/>
<path d="M1516 6508 c-3 -17 -4 -34 -1 -37 9 -8 25 21 25 47 0 33 -17 27 -24
-10z"/>
<path d="M1324 6504 c3 -9 6 -23 6 -32 0 -12 3 -13 11 -5 13 13 3 53 -13 53
-5 0 -7 -7 -4 -16z"/>
<path d="M1409 6508 c-7 -26 -2 -58 8 -58 15 0 18 46 3 55 -5 3 -10 5 -11 3z"/>
<path d="M680 6470 c0 -16 5 -30 10 -30 6 0 10 14 10 30 0 17 -4 30 -10 30 -5
0 -10 -13 -10 -30z"/>
<path d="M753 6465 c-3 -9 -3 -18 0 -21 9 -9 27 6 27 22 0 19 -19 18 -27 -1z"/>
<path d="M1159 6453 c-1 -10 -1 -32 0 -48 2 -24 -4 -34 -31 -50 -55 -34 -90
-43 -158 -44 -84 -1 -134 13 -193 55 -54 39 -81 45 -48 10 88 -93 292 -113
405 -40 l38 26 24 -23 c13 -12 27 -19 31 -16 3 4 -6 18 -20 31 -26 24 -31 43
-27 94 1 12 -3 22 -9 22 -6 0 -12 -8 -12 -17z"/>
<path d="M1237 6464 c-7 -8 4 -44 14 -44 12 0 12 37 0 44 -4 3 -11 3 -14 0z"/>
<path d="M1100 6420 c0 -16 5 -30 10 -30 6 0 10 14 10 30 0 17 -4 30 -10 30
-5 0 -10 -13 -10 -30z"/>
<path d="M797 6418 c-7 -25 0 -41 14 -33 12 8 12 55 0 55 -5 0 -11 -10 -14
-22z"/>
<path d="M972 6424 c1 -9 9 -19 16 -22 9 -3 13 2 10 14 -1 9 -9 19 -16 22 -9
3 -13 -2 -10 -14z"/>
<path d="M1047 6420 c8 -29 25 -37 21 -9 -1 12 -8 24 -15 26 -7 3 -9 -3 -6
-17z"/>
<path d="M876 6404 c-10 -25 -7 -34 9 -34 9 0 15 9 15 25 0 28 -15 34 -24 9z"/>
<path d="M1481 6372 c-7 -13 -11 -28 -8 -35 2 -7 9 -2 16 11 7 13 11 28 8 35
-2 7 -9 2 -16 -11z"/>
<path d="M920 6360 c0 -11 5 -20 10 -20 6 0 10 9 10 20 0 11 -4 20 -10 20 -5
0 -10 -9 -10 -20z"/>
<path d="M1010 6361 c0 -11 4 -22 9 -25 11 -7 20 14 13 32 -7 19 -22 14 -22
-7z"/>
<path d="M1310 6345 c0 -22 4 -34 10 -30 6 3 10 17 10 30 0 13 -4 27 -10 30
-6 4 -10 -8 -10 -30z"/>
<path d="M1397 6373 c-11 -10 -8 -53 3 -53 6 0 10 14 10 30 0 31 -2 35 -13 23z"/>
<path d="M1330 6236 c0 -20 5 -36 10 -36 6 0 10 13 10 29 0 17 -4 33 -10 36
-6 4 -10 -8 -10 -29z"/>
<path d="M735 6218 c8 -35 12 -44 19 -37 7 8 -6 69 -16 69 -6 0 -7 -13 -3 -32z"/>
<path d="M1158 6244 c-5 -4 -8 -23 -8 -43 0 -25 3 -32 11 -24 6 6 9 25 7 43
-2 17 -6 28 -10 24z"/>
<path d="M1406 6234 c-9 -22 3 -32 14 -14 12 19 12 30 1 30 -5 0 -12 -7 -15
-16z"/>
<path d="M826 6201 c-4 -6 -1 -21 6 -33 10 -20 13 -20 16 -6 5 23 -13 54 -22
39z"/>
<path d="M1026 6178 c-3 -13 -6 -27 -6 -33 1 -15 30 27 30 42 0 22 -17 15 -24
-9z"/>
<path d="M1260 6150 c0 -16 5 -30 10 -30 6 0 10 14 10 30 0 17 -4 30 -10 30
-5 0 -10 -13 -10 -30z"/>
<path d="M923 6156 c4 -10 7 -26 7 -37 0 -10 4 -19 10 -19 14 0 5 63 -10 68
-9 3 -11 -1 -7 -12z"/>
<path d="M797 6113 c-3 -5 -1 -18 4 -31 11 -28 29 -21 22 8 -6 23 -19 34 -26
23z"/>
<path d="M1118 6095 c-4 -17 -1 -25 8 -25 8 0 14 11 14 25 0 14 -4 25 -9 25
-5 0 -11 -11 -13 -25z"/>
<path d="M1380 6065 c0 -14 5 -25 10 -25 6 0 10 11 10 25 0 14 -4 25 -10 25
-5 0 -10 -11 -10 -25z"/>
<path d="M870 6061 c0 -19 17 -38 25 -29 7 7 -7 48 -16 48 -5 0 -9 -9 -9 -19z"/>
<path d="M1005 6059 c-4 -11 -4 -23 0 -27 7 -7 25 17 25 36 0 20 -18 14 -25
-9z"/>
<path d="M1030 5936 c0 -14 5 -26 10 -26 6 0 10 9 10 19 0 11 -4 23 -10 26 -6
4 -10 -5 -10 -19z"/>
<path d="M1130 5941 c0 -19 17 -38 25 -29 7 7 -7 48 -16 48 -5 0 -9 -9 -9 -19z"/>
<path d="M1230 5926 c0 -14 5 -28 11 -31 15 -10 18 -4 12 28 -7 34 -23 36 -23
3z"/>
<path d="M1070 5881 c0 -10 7 -24 15 -31 16 -13 18 -8 9 28 -8 27 -24 29 -24
3z"/>
<path d="M1172 5841 c2 -19 9 -36 16 -39 9 -3 11 4 6 25 -10 44 -26 54 -22 14z"/>
<path d="M1060 5813 c0 -29 10 -53 22 -53 6 0 7 11 3 28 -9 36 -25 52 -25 25z"/>
<path d="M1250 5770 c0 -16 5 -30 10 -30 6 0 10 14 10 30 0 17 -4 30 -10 30
-5 0 -10 -13 -10 -30z"/>
<path d="M1130 5742 c0 -30 8 -45 20 -37 9 6 0 65 -11 65 -5 0 -9 -13 -9 -28z"/>
<path d="M1056 5688 c8 -28 12 -33 20 -25 9 8 -6 47 -17 47 -6 0 -7 -10 -3
-22z"/>
<path d="M1175 5643 c7 -30 13 -39 19 -32 8 8 -6 59 -16 59 -6 0 -7 -11 -3
-27z"/>
<path d="M1119 5588 c4 -12 14 -24 21 -26 9 -3 11 1 7 12 -4 10 -7 22 -7 27 0
5 -7 9 -15 9 -11 0 -12 -6 -6 -22z"/>
<path d="M772 6861 c-19 -11 -11 -45 11 -49 9 -2 20 4 23 13 9 21 -16 47 -34
36z"/>
<path d="M1941 5843 c-7 -8 -11 -16 -8 -19 2 -2 10 2 17 11 17 20 9 27 -9 8z"/>
<path d="M1675 6100 c-3 -5 -1 -10 4 -10 6 0 11 5 11 10 0 6 -2 10 -4 10 -3 0
-8 -4 -11 -10z"/>
<path d="M1723 5935 c0 -8 4 -12 9 -9 5 3 6 10 3 15 -9 13 -12 11 -12 -6z"/>
<path d="M1776 5813 c-6 -14 -5 -15 5 -6 7 7 10 15 7 18 -3 3 -9 -2 -12 -12z"/>
<path d="M1501 5084 c0 -11 3 -14 6 -6 3 7 2 16 -1 19 -3 4 -6 -2 -5 -13z"/>
<path d="M1695 3580 c3 -5 8 -10 11 -10 2 0 4 5 4 10 0 6 -5 10 -11 10 -5 0
-7 -4 -4 -10z"/>
<path d="M2125 5580 c3 -5 8 -10 11 -10 2 0 4 5 4 10 0 6 -5 10 -11 10 -5 0
-7 -4 -4 -10z"/>
<path d="M2131 5504 c0 -11 3 -14 6 -6 3 7 2 16 -1 19 -3 4 -6 -2 -5 -13z"/>
<path d="M2171 5144 c0 -11 3 -14 6 -6 3 7 2 16 -1 19 -3 4 -6 -2 -5 -13z"/>
<path d="M2101 4814 c0 -11 3 -14 6 -6 3 7 2 16 -1 19 -3 4 -6 -2 -5 -13z"/>
<path d="M2051 4434 c0 -11 3 -14 6 -6 3 7 2 16 -1 19 -3 4 -6 -2 -5 -13z"/>
<path d="M585 5399 c-4 -6 -5 -12 -2 -15 2 -3 7 2 10 11 7 17 1 20 -8 4z"/>
<path d="M500 5230 c0 -5 5 -10 10 -10 6 0 10 5 10 10 0 6 -4 10 -10 10 -5 0
-10 -4 -10 -10z"/>
<path d="M1060 4889 c0 -24 23 -21 28 4 2 10 -3 17 -12 17 -10 0 -16 -9 -16
-21z"/>
<path d="M885 1050 c-7 -11 35 -36 81 -49 42 -12 152 -15 178 -5 35 14 11 19
-71 16 -77 -3 -94 0 -136 21 -26 13 -50 21 -52 17z"/>
</g>
</svg>
